<svg width="14" height="14" viewBox="0 0 14 14" fill="none" xmlns="http://www.w3.org/2000/svg">
<path d="M7.50511 1.75002L13.0621 11.375C13.2232 11.654 13.1276 12.0108 12.8486 12.1719C12.76 12.2231 12.6593 12.25 12.557 12.25H1.44295C1.12079 12.25 0.859619 11.9889 0.859619 11.6667C0.859619 11.5643 0.886575 11.4637 0.937774 11.375L6.49478 1.75002C6.65583 1.47101 7.0126 1.37542 7.29161 1.5365C7.38028 1.5877 7.45395 1.66134 7.50511 1.75002ZM2.45331 11.0834H11.5466L6.99994 3.20835L2.45331 11.0834ZM6.41661 9.33337H7.58328V10.5H6.41661V9.33337ZM6.41661 5.25002H7.58328V8.1667H6.41661V5.25002Z" fill="#F61818"/>
</svg>
