<svg width="16" height="17" viewBox="0 0 16 17" fill="none" xmlns="http://www.w3.org/2000/svg">
<path d="M0.787598 8.5C1.4146 5.08651 4.40525 2.5 8.00004 2.5C11.5948 2.5 14.5854 5.08651 15.2124 8.5C14.5854 11.9135 11.5948 14.5 8.00004 14.5C4.40525 14.5 1.4146 11.9135 0.787598 8.5ZM8.00004 11.8333C9.84097 11.8333 11.3334 10.3409 11.3334 8.5C11.3334 6.65905 9.84097 5.16667 8.00004 5.16667C6.15906 5.16667 4.66668 6.65905 4.66668 8.5C4.66668 10.3409 6.15906 11.8333 8.00004 11.8333ZM8.00004 10.5C6.89544 10.5 6.00001 9.6046 6.00001 8.5C6.00001 7.3954 6.89544 6.5 8.00004 6.5C9.10457 6.5 10 7.3954 10 8.5C10 9.6046 9.10457 10.5 8.00004 10.5Z" fill="#3872B7"/>
</svg>
