<svg width="25" height="24" viewBox="0 0 25 24" fill="none" xmlns="http://www.w3.org/2000/svg">
<mask id="mask0_1607_347" style="mask-type:luminance" maskUnits="userSpaceOnUse" x="1" y="5" width="9" height="14">
<path d="M1.25583 5.19995H9.10802V18.8H1.25583V5.19995Z" fill="white"/>
</mask>
<g mask="url(#mask0_1607_347)">
<mask id="mask1_1607_347" style="mask-type:luminance" maskUnits="userSpaceOnUse" x="1" y="0" width="23" height="24">
<path d="M23.463 9.90896H12.7513V14.35H18.9171C18.3423 17.1714 15.9387 18.7911 12.7513 18.7911C8.98922 18.7911 5.95859 15.7607 5.95859 11.9988C5.95859 8.23702 8.98922 5.20665 12.7513 5.20665C14.3712 5.20665 15.8342 5.7814 16.9837 6.72183L20.3278 3.37802C18.29 1.60158 15.6775 0.504395 12.7513 0.504395C6.37659 0.504395 1.25591 5.62465 1.25591 11.9988C1.25591 18.3731 6.37659 23.4933 12.7513 23.4933C18.499 23.4933 23.7242 19.3135 23.7242 11.9988C23.7242 11.3196 23.6197 10.5881 23.463 9.90896Z" fill="white"/>
</mask>
<g mask="url(#mask1_1607_347)">
<path d="M0.210846 18.791V5.20654L9.09366 11.9987L0.210846 18.791Z" fill="#FBBC05"/>
</g>
</g>
<mask id="mask2_1607_347" style="mask-type:luminance" maskUnits="userSpaceOnUse" x="1" y="0" width="23" height="12">
<path d="M1.25583 0.496094H23.7241V12.0001H1.25583V0.496094Z" fill="white"/>
</mask>
<g mask="url(#mask2_1607_347)">
<mask id="mask3_1607_347" style="mask-type:luminance" maskUnits="userSpaceOnUse" x="1" y="0" width="23" height="24">
<path d="M23.463 9.90896H12.7513V14.35H18.9171C18.3423 17.1714 15.9387 18.7911 12.7513 18.7911C8.98922 18.7911 5.95859 15.7607 5.95859 11.9988C5.95859 8.23702 8.98922 5.20665 12.7513 5.20665C14.3712 5.20665 15.8342 5.7814 16.9837 6.72183L20.3278 3.37802C18.29 1.60158 15.6775 0.504395 12.7513 0.504395C6.37659 0.504395 1.25591 5.62465 1.25591 11.9988C1.25591 18.3731 6.37659 23.4933 12.7513 23.4933C18.499 23.4933 23.7242 19.3135 23.7242 11.9988C23.7242 11.3196 23.6197 10.5881 23.463 9.90896Z" fill="white"/>
</mask>
<g mask="url(#mask3_1607_347)">
<path d="M0.210846 5.20672L9.09366 11.9989L12.7513 8.81185L25.2917 6.77416V-0.540527H0.210846V5.20672Z" fill="#EA4335"/>
</g>
</g>
<mask id="mask4_1607_347" style="mask-type:luminance" maskUnits="userSpaceOnUse" x="1" y="0" width="23" height="24">
<path d="M1.25583 0.496094H23.7241V23.4934H1.25583V0.496094Z" fill="white"/>
</mask>
<g mask="url(#mask4_1607_347)">
<mask id="mask5_1607_347" style="mask-type:luminance" maskUnits="userSpaceOnUse" x="1" y="0" width="23" height="24">
<path d="M23.463 9.90896H12.7513V14.35H18.9171C18.3423 17.1714 15.9387 18.7911 12.7513 18.7911C8.98922 18.7911 5.95859 15.7607 5.95859 11.9988C5.95859 8.23702 8.98922 5.20665 12.7513 5.20665C14.3712 5.20665 15.8342 5.7814 16.9837 6.72183L20.3278 3.37802C18.29 1.60158 15.6775 0.504395 12.7513 0.504395C6.37659 0.504395 1.25591 5.62465 1.25591 11.9988C1.25591 18.3731 6.37659 23.4933 12.7513 23.4933C18.499 23.4933 23.7242 19.3135 23.7242 11.9988C23.7242 11.3196 23.6197 10.5881 23.463 9.90896Z" fill="white"/>
</mask>
<g mask="url(#mask5_1607_347)">
<path d="M0.210846 18.7912L15.8864 6.77416L20.0143 7.29666L25.2917 -0.540527V24.5384H0.210846V18.7912Z" fill="#34A853"/>
</g>
</g>
<mask id="mask6_1607_347" style="mask-type:luminance" maskUnits="userSpaceOnUse" x="6" y="5" width="18" height="19">
<path d="M6.99596 5.19995H23.7241V23.4933H6.99596V5.19995Z" fill="white"/>
</mask>
<g mask="url(#mask6_1607_347)">
<mask id="mask7_1607_347" style="mask-type:luminance" maskUnits="userSpaceOnUse" x="1" y="0" width="23" height="24">
<path d="M23.4629 9.90896H12.7513V14.35H18.917C18.3422 17.1714 15.9386 18.7911 12.7513 18.7911C8.98914 18.7911 5.95852 15.7607 5.95852 11.9988C5.95852 8.23702 8.98914 5.20665 12.7513 5.20665C14.3711 5.20665 15.8341 5.7814 16.9836 6.72183L20.3278 3.37802C18.29 1.60158 15.6774 0.504395 12.7513 0.504395C6.37652 0.504395 1.25583 5.62465 1.25583 11.9988C1.25583 18.3731 6.37652 23.4933 12.7513 23.4933C18.499 23.4933 23.7241 19.3135 23.7241 11.9988C23.7241 11.3196 23.6196 10.5881 23.4629 9.90896Z" fill="white"/>
</mask>
<g mask="url(#mask7_1607_347)">
<path d="M25.2917 24.5382L9.09363 11.9987L7.00357 10.4314L25.2917 5.20654V24.5382Z" fill="#4285F4"/>
</g>
</g>
</svg>
