<svg width="16" height="17" viewBox="0 0 16 17" fill="none" xmlns="http://www.w3.org/2000/svg">
<g clip-path="url(#clip0_2479_34264)">
<path d="M13.8091 5.91882L13.6447 6.29594C13.5244 6.57203 13.1426 6.57203 13.0222 6.29594L12.8579 5.91882C12.5649 5.2464 12.0372 4.71102 11.3786 4.41814L10.8722 4.1929C10.5984 4.0711 10.5984 3.67262 10.8722 3.55083L11.3503 3.33818C12.0258 3.03776 12.563 2.48257 12.8509 1.7873L13.0197 1.37977C13.1374 1.09574 13.5296 1.09574 13.6472 1.37977L13.816 1.7873C14.104 2.48257 14.6412 3.03776 15.3167 3.33818L15.7948 3.55083C16.0686 3.67262 16.0686 4.0711 15.7948 4.1929L15.2884 4.41814C14.6298 4.71102 14.1021 5.2464 13.8091 5.91882ZM13.3335 7.83342C13.7992 7.83342 14.2464 7.75382 14.6621 7.60748C14.6652 7.68242 14.6668 7.75775 14.6668 7.83342C14.6668 10.7789 12.279 13.1667 9.3335 13.1667V15.5001C6.00016 14.1667 1.3335 12.1667 1.3335 7.83342C1.3335 4.8879 3.72131 2.50008 6.66683 2.50008H9.3335C9.40916 2.50008 9.4845 2.50166 9.55943 2.50478C9.4131 2.92049 9.3335 3.36766 9.3335 3.83342C9.3335 6.04256 11.1244 7.83342 13.3335 7.83342Z" fill="#9500FF"/>
<path d="M13.8091 5.91882L13.6447 6.29594C13.5244 6.57203 13.1426 6.57203 13.0222 6.29594L12.8579 5.91882C12.5649 5.2464 12.0372 4.71102 11.3786 4.41814L10.8722 4.1929C10.5984 4.0711 10.5984 3.67262 10.8722 3.55083L11.3503 3.33818C12.0258 3.03776 12.563 2.48257 12.8509 1.7873L13.0197 1.37977C13.1374 1.09574 13.5296 1.09574 13.6472 1.37977L13.816 1.7873C14.104 2.48257 14.6412 3.03776 15.3167 3.33818L15.7948 3.55083C16.0686 3.67262 16.0686 4.0711 15.7948 4.1929L15.2884 4.41814C14.6298 4.71102 14.1021 5.2464 13.8091 5.91882ZM13.3335 7.83342C13.7992 7.83342 14.2464 7.75382 14.6621 7.60748C14.6652 7.68242 14.6668 7.75775 14.6668 7.83342C14.6668 10.7789 12.279 13.1667 9.3335 13.1667V15.5001C6.00016 14.1667 1.3335 12.1667 1.3335 7.83342C1.3335 4.8879 3.72131 2.50008 6.66683 2.50008H9.3335C9.40916 2.50008 9.4845 2.50166 9.55943 2.50478C9.4131 2.92049 9.3335 3.36766 9.3335 3.83342C9.3335 6.04256 11.1244 7.83342 13.3335 7.83342Z" fill="black" fill-opacity="0.2"/>
</g>
<defs>
<clipPath id="clip0_2479_34264">
<rect width="16" height="16" fill="white" transform="translate(0 0.5)"/>
</clipPath>
</defs>
</svg>
