<svg width="154" height="45" viewBox="0 0 154 45" fill="none" xmlns="http://www.w3.org/2000/svg">
<mask id="mask0_1180_23731" style="mask-type:luminance" maskUnits="userSpaceOnUse" x="0" y="0" width="154" height="45">
<path d="M154 0H6.10352e-05V45H154V0Z" fill="white"/>
</mask>
<g mask="url(#mask0_1180_23731)">
<path d="M18.9059 1.42041C20.0538 1.42041 20.9876 2.36176 20.9876 3.52446C20.9876 4.35636 20.5087 5.07636 19.8132 5.4169C19.8541 5.52636 19.8758 5.64311 19.8758 5.76717V7.45041C19.8758 7.60852 19.8373 7.75933 19.7723 7.89311C26.3276 8.275 31.5281 13.7674 31.5281 20.4907C31.5281 27.2139 25.9402 33.1077 19.0455 33.1077C12.1508 33.1077 6.56293 27.4596 6.56293 20.4907C6.56293 13.8623 11.6214 8.42582 18.0492 7.91257C17.977 7.77636 17.9361 7.61825 17.9361 7.45284V5.7696C17.9361 5.64554 17.9578 5.52879 17.9987 5.41933C17.3032 5.07879 16.8243 4.35879 16.8243 3.5269C16.8243 2.36663 17.7556 1.42284 18.9059 1.42284V1.42041ZM19.3487 19.9872C19.2188 20.0942 18.6701 20.5418 18.7591 21.1766C18.8289 21.6826 19.2741 22.1107 19.8637 22.2177C20.321 21.5318 21.2041 20.1064 20.8191 19.6904C20.5688 19.418 19.8084 19.6101 19.3487 19.9872Z" fill="#9500FF"/>
<path d="M35.5621 35.3917C33.4636 37.6369 30.9344 39.4247 28.1284 40.6482C25.3224 41.8717 22.2998 42.5042 19.2459 42.5066C16.1896 42.5066 13.1671 41.8815 10.3587 40.6628C7.55026 39.4442 5.01861 37.6588 2.91772 35.4185L7.10506 31.4074C8.66688 33.0736 10.5488 34.3993 12.6352 35.3066C14.7217 36.2139 16.9694 36.6785 19.2411 36.676C21.5129 36.676 23.7581 36.2042 25.8446 35.2944C27.9286 34.3847 29.8105 33.0566 31.3699 31.3879L35.5645 35.3917H35.5621Z" fill="#9500FF"/>
</g>
<path d="M23.1488 16.8374H14.7621C12.8522 16.8374 11.3039 18.4023 11.3039 20.3328C11.3039 22.2633 12.8522 23.8282 14.7621 23.8282H23.1488C25.0586 23.8282 26.6069 22.2633 26.6069 20.3328C26.6069 18.4023 25.0586 16.8374 23.1488 16.8374Z" fill="white"/>
<path d="M15.2033 21.8188C15.8946 21.8188 16.4551 21.2525 16.4551 20.5539C16.4551 19.8554 15.8946 19.2891 15.2033 19.2891C14.512 19.2891 13.9516 19.8554 13.9516 20.5539C13.9516 21.2525 14.512 21.8188 15.2033 21.8188Z" fill="#9500FF"/>
<path d="M22.3399 21.5952C23.0312 21.5952 23.5916 21.0289 23.5916 20.3303C23.5916 19.6317 23.0312 19.0654 22.3399 19.0654C21.6486 19.0654 21.0881 19.6317 21.0881 20.3303C21.0881 21.0289 21.6486 21.5952 22.3399 21.5952Z" fill="#9500FF"/>
<path d="M19.3522 23.5802C20.4953 23.5437 21.636 23.5096 22.7791 23.4731C22.9909 24.2442 23.2027 25.0153 23.4144 25.7888C22.062 25.0518 20.7071 24.3172 19.3546 23.5802H19.3522Z" fill="white"/>
<path d="M57.4686 18.1118H54.2847C54.162 17.4234 53.9334 16.8202 53.6013 16.2972C53.2692 15.7742 52.8601 15.3315 52.3764 14.9666C51.8927 14.6018 51.3536 14.3269 50.7544 14.1421C50.1624 13.9572 49.5343 13.8648 48.8677 13.8648C47.6644 13.8648 46.5863 14.1712 45.6333 14.7818C44.6876 15.3948 43.9391 16.2923 43.3881 17.4745C42.8442 18.6566 42.5722 20.1015 42.5722 21.8066C42.5722 23.5118 42.8442 24.9761 43.3881 26.1583C43.9391 27.3404 44.69 28.2356 45.643 28.8412C46.5959 29.4469 47.6668 29.7485 48.8581 29.7485C49.5174 29.7485 50.1431 29.6585 50.7351 29.481C51.3344 29.2961 51.8758 29.0237 52.3571 28.6661C52.8384 28.3085 53.2475 27.8707 53.582 27.355C53.9214 26.8321 54.1572 26.2337 54.2871 25.5599L57.471 25.5696C57.3001 26.6083 56.9704 27.5642 56.4819 28.4375C55.9982 29.3034 55.3773 30.0526 54.6144 30.685C53.8588 31.3102 52.9949 31.7966 52.0226 32.1396C51.0504 32.4826 49.9891 32.6553 48.8388 32.6553C47.0291 32.6553 45.4167 32.2223 44.0017 31.3564C42.5867 30.4831 41.4701 29.2353 40.6543 27.6129C39.8457 25.9904 39.439 24.0542 39.439 21.8066C39.439 19.5591 39.8481 17.6156 40.6639 16.0004C41.4797 14.378 42.5963 13.1326 44.0113 12.2666C45.4264 11.3934 47.0363 10.9556 48.8388 10.9556C49.9482 10.9556 50.983 11.1161 51.9408 11.4396C52.9058 11.7558 53.7746 12.2229 54.5422 12.8431C55.3099 13.4561 55.9476 14.2053 56.4506 15.0907C56.9536 15.9712 57.2929 16.9783 57.471 18.1118H57.4686ZM62.3225 22.9596V32.3658H59.271V11.2426H62.2816V19.1018H62.4765C62.8447 18.248 63.4054 17.5718 64.1611 17.0707C64.9167 16.5696 65.9034 16.3166 67.1211 16.3166C68.1968 16.3166 69.1353 16.5404 69.9367 16.988C70.7453 17.4356 71.371 18.1021 71.8138 18.9899C72.2638 19.8704 72.4876 20.9699 72.4876 22.2907V32.3683H69.4361V22.6629C69.4361 21.5002 69.1401 20.6002 68.5481 19.9604C67.9561 19.3134 67.1331 18.9899 66.0791 18.9899C65.3571 18.9899 64.7122 19.1456 64.1394 19.4545C63.5739 19.7634 63.1287 20.2183 62.8014 20.8166C62.4813 21.4077 62.3225 22.1229 62.3225 22.9621V22.9596ZM79.3967 32.7161C78.4028 32.7161 77.5052 32.5312 76.7014 32.1591C75.8976 31.7821 75.2623 31.2348 74.793 30.5196C74.331 29.8045 74.1 28.9288 74.1 27.8902C74.1 26.995 74.2708 26.2604 74.6101 25.6815C74.9495 25.105 75.4091 24.6477 75.9867 24.3096C76.5642 23.9739 77.2116 23.7185 77.9263 23.5458C78.6411 23.3731 79.3678 23.2442 80.1114 23.1542C81.05 23.0448 81.8128 22.9548 82.3976 22.8866C82.9824 22.8112 83.4084 22.6896 83.6731 22.5266C83.9378 22.3612 84.0702 22.0937 84.0702 21.7215V21.6485C84.0702 20.7485 83.8175 20.0504 83.3145 19.5542C82.8188 19.058 82.0776 18.8123 81.0909 18.8123C80.1042 18.8123 79.2547 19.0434 78.6627 19.5031C78.0779 19.958 77.6736 20.4615 77.4474 21.0185L74.5813 20.3594C74.9206 19.3961 75.4187 18.6202 76.0709 18.0291C76.7303 17.4307 77.4883 16.9977 78.3475 16.7302C79.2042 16.4553 80.1066 16.3166 81.0524 16.3166C81.6781 16.3166 82.3423 16.3921 83.0426 16.5429C83.7501 16.6864 84.4095 16.9564 85.0231 17.348C85.6416 17.7396 86.1494 18.3015 86.544 19.0288C86.9387 19.7512 87.136 20.6902 87.136 21.8456V32.3658H84.1568V30.1985H84.0341C83.8367 30.5975 83.5407 30.9891 83.1461 31.3734C82.7514 31.7577 82.2436 32.0788 81.6251 32.3318C81.0067 32.5872 80.2655 32.7137 79.4015 32.7137L79.3967 32.7161ZM80.0585 30.2423C80.9032 30.2423 81.6227 30.0745 82.222 29.7364C82.8284 29.4007 83.2856 28.9604 83.5985 28.4156C83.9185 27.8658 84.0774 27.2772 84.0774 26.6521V24.6088C83.9691 24.7183 83.7573 24.8229 83.4445 24.9177C83.1388 25.0077 82.7875 25.0856 82.3928 25.1561C81.9981 25.2169 81.6131 25.2753 81.2401 25.3312C80.8671 25.3799 80.5518 25.4212 80.3016 25.4553C79.7095 25.5307 79.1681 25.6572 78.6796 25.8372C78.1959 26.0148 77.8084 26.275 77.5172 26.6107C77.2308 26.9415 77.0889 27.3818 77.0889 27.9315C77.0889 28.6953 77.368 29.2718 77.9263 29.6634C78.4846 30.0477 79.1946 30.2399 80.0585 30.2399V30.2423ZM96.7862 16.5234V18.9996H88.2238V16.5234H96.7862ZM90.522 12.7288H93.5735V27.715C93.5735 28.3134 93.6625 28.7634 93.8382 29.0675C94.0139 29.3642 94.2425 29.5661 94.5216 29.6756C94.808 29.7777 95.116 29.8312 95.4506 29.8312C95.696 29.8312 95.9102 29.8142 96.0931 29.7802C96.276 29.7461 96.4204 29.7194 96.5214 29.6975L97.0725 32.2442C96.8969 32.3123 96.6442 32.3829 96.3169 32.451C95.9896 32.5264 95.5829 32.5677 95.092 32.575C94.2882 32.5896 93.5398 32.4437 92.8467 32.1421C92.1536 31.8404 91.5905 31.371 91.1621 30.7385C90.7338 30.1061 90.5196 29.3107 90.5196 28.3572V12.7312L90.522 12.7288ZM99.0194 32.3658V11.2426H102.071V19.0921H102.254C102.429 18.7612 102.687 18.3793 103.019 17.9464C103.354 17.5134 103.816 17.1339 104.408 16.8129C105 16.4821 105.782 16.3166 106.754 16.3166C108.02 16.3166 109.148 16.6402 110.142 17.2872C111.136 17.9342 111.914 18.8658 112.479 20.0821C113.049 21.2983 113.336 22.765 113.336 24.475C113.336 26.185 113.054 27.6542 112.489 28.8802C111.923 30.0964 111.148 31.0353 110.162 31.6969C109.175 32.3512 108.049 32.6772 106.783 32.6772C105.83 32.6772 105.053 32.5166 104.446 32.1931C103.847 31.8696 103.378 31.4926 103.038 31.0596C102.699 30.6266 102.437 30.2423 102.251 29.9042H101.996V32.3683H99.017L99.0194 32.3658ZM102.011 24.4458C102.011 25.5599 102.17 26.5353 102.49 27.3745C102.81 28.2137 103.272 28.8704 103.878 29.3448C104.485 29.8118 105.226 30.0453 106.102 30.0453C106.978 30.0453 107.774 29.8021 108.388 29.3131C108.999 28.8194 109.464 28.148 109.777 27.3015C110.097 26.455 110.255 25.5039 110.255 24.4434C110.255 23.3829 110.099 22.4585 109.786 21.6266C109.481 20.7948 109.018 20.138 108.398 19.6564C107.786 19.1748 107.021 18.9339 106.102 18.9339C105.182 18.9339 104.47 19.165 103.857 19.6248C103.25 20.0845 102.793 20.7291 102.48 21.5537C102.167 22.3783 102.011 23.3415 102.011 24.441V24.4458ZM121.641 32.6869C120.17 32.6869 118.89 32.3464 117.793 31.6653C116.698 30.9842 115.846 30.0331 115.242 28.8072C114.635 27.5837 114.334 26.1534 114.334 24.5164C114.334 22.8794 114.638 21.4369 115.242 20.2061C115.848 18.9753 116.698 18.0193 117.793 17.3383C118.888 16.6572 120.17 16.3166 121.641 16.3166C123.111 16.3166 124.394 16.6572 125.489 17.3383C126.584 18.0193 127.436 18.9753 128.04 20.2061C128.646 21.4369 128.947 22.8745 128.947 24.5164C128.947 26.1583 128.644 27.5837 128.04 28.8072C127.433 30.0307 126.584 30.9842 125.489 31.6653C124.394 32.3464 123.111 32.6869 121.641 32.6869ZM121.65 30.0964C122.603 30.0964 123.393 29.841 124.018 29.3326C124.644 28.8242 125.106 28.1456 125.407 27.3015C125.712 26.455 125.866 25.5234 125.866 24.5066C125.866 23.4899 125.712 22.568 125.407 21.7215C125.108 20.8677 124.644 20.1842 124.018 19.6685C123.393 19.1529 122.603 18.895 121.65 18.895C120.697 18.895 119.896 19.1529 119.263 19.6685C118.637 20.1842 118.17 20.8677 117.865 21.7215C117.566 22.568 117.415 23.4948 117.415 24.5066C117.415 25.5185 117.564 26.455 117.865 27.3015C118.17 28.148 118.637 28.8242 119.263 29.3326C119.896 29.841 120.692 30.0964 121.65 30.0964ZM141.21 38.3083V29.9018H141.027C140.845 30.2375 140.577 30.6242 140.231 31.0572C139.892 31.4902 139.422 31.8696 138.823 32.1907C138.224 32.5142 137.449 32.6748 136.496 32.6748C135.23 32.6748 134.102 32.3488 133.108 31.6945C132.121 31.0353 131.346 30.0964 130.781 28.8777C130.222 27.6542 129.943 26.185 129.943 24.4726C129.943 22.7602 130.225 21.2958 130.79 20.0796C131.361 18.8634 132.145 17.9318 133.137 17.2848C134.13 16.6377 135.257 16.3142 136.515 16.3142C137.488 16.3142 138.27 16.4796 138.862 16.8104C139.461 17.1339 139.923 17.511 140.25 17.9439C140.582 18.3769 140.842 18.7588 141.025 19.0896H141.28V16.521H144.259V38.3058H141.208L141.21 38.3083ZM137.17 30.0453C138.048 30.0453 138.789 29.8118 139.393 29.3448C140.005 28.8704 140.469 28.2137 140.782 27.3745C141.102 26.5353 141.261 25.5599 141.261 24.4458C141.261 23.3318 141.105 22.3831 140.792 21.5585C140.479 20.7339 140.019 20.0894 139.415 19.6296C138.809 19.1699 138.06 18.9388 137.17 18.9388C136.279 18.9388 135.485 19.1796 134.874 19.6612C134.263 20.1429 133.798 20.7996 133.485 21.6315C133.18 22.4634 133.026 23.4023 133.026 24.4483C133.026 25.4942 133.182 26.4599 133.495 27.3064C133.808 28.1529 134.27 28.8218 134.884 29.318C135.502 29.8069 136.265 30.0502 137.17 30.0502V30.0453Z" fill="#9500FF"/>
</svg>
