<svg width="18" height="19" viewBox="0 0 18 19" fill="none" xmlns="http://www.w3.org/2000/svg">
<path d="M3 17C3 13.6863 5.68629 11 9 11C12.3137 11 15 13.6863 15 17H3ZM9 10.25C6.51375 10.25 4.5 8.23625 4.5 5.75C4.5 3.26375 6.51375 1.25 9 1.25C11.4862 1.25 13.5 3.26375 13.5 5.75C13.5 8.23625 11.4862 10.25 9 10.25Z" fill="#71717A"/>
<path d="M3 17C3 13.6863 5.68629 11 9 11C12.3137 11 15 13.6863 15 17H3ZM9 10.25C6.51375 10.25 4.5 8.23625 4.5 5.75C4.5 3.26375 6.51375 1.25 9 1.25C11.4862 1.25 13.5 3.26375 13.5 5.75C13.5 8.23625 11.4862 10.25 9 10.25Z" fill="black" fill-opacity="0.2"/>
</svg>
