<svg width="12" height="9" viewBox="0 0 12 9" fill="none" xmlns="http://www.w3.org/2000/svg">
<path fill-rule="evenodd" clip-rule="evenodd" d="M0 0H12V9H0V0Z" fill="#229E45"/>
<path fill-rule="evenodd" clip-rule="evenodd" d="M6.0263 8.17495L11.6794 4.50558L5.99255 0.824951L0.320679 4.51308L6.0263 8.17495Z" fill="#F8E509"/>
<path fill-rule="evenodd" clip-rule="evenodd" d="M8.49002 4.5C8.49002 5.81812 7.4194 6.88687 6.09753 6.88687C5.62516 6.88613 5.16361 6.74536 4.77124 6.48234C4.37886 6.21933 4.07327 5.84589 3.8931 5.40923C3.71294 4.97257 3.66628 4.49229 3.75902 4.02912C3.85177 3.56594 4.07975 3.14066 4.41416 2.80704C4.74857 2.47342 5.17439 2.24643 5.63778 2.15477C6.10117 2.06312 6.58134 2.11091 7.01757 2.29211C7.45381 2.4733 7.82653 2.77977 8.08862 3.17276C8.35071 3.56575 8.4904 4.02763 8.49002 4.5Z" fill="#2B49A3"/>
<path fill-rule="evenodd" clip-rule="evenodd" d="M5.31192 5.93055L5.23692 5.88742L5.16192 5.92492L5.17879 5.84055L5.11879 5.7768L5.20317 5.76742L5.24442 5.69242L5.28004 5.77117L5.36254 5.78617L5.30067 5.84242M6.91317 6.33555L6.84004 6.29242L6.76504 6.32992L6.78004 6.24555L6.72192 6.18367L6.80629 6.1743L6.84567 6.09742L6.88317 6.17617L6.96567 6.19117L6.90192 6.2493M6.22317 5.6868L6.15942 5.6493L6.09379 5.68305L6.10879 5.60992L6.05629 5.55555L6.13129 5.54805L6.16504 5.48055L6.19504 5.54992L6.26817 5.56305L6.21192 5.61367M7.84317 5.4543L7.77942 5.4168L7.71379 5.45055L7.72879 5.37742L7.67817 5.32492L7.75129 5.31742L7.78504 5.2518L7.81504 5.3193L7.88629 5.33242L7.83192 5.38117M6.19504 4.96867L6.12004 4.92742L6.04504 4.96492L6.06004 4.87867L6.00192 4.8168L6.08629 4.80742L6.12567 4.73055L6.16317 4.8093L6.24567 4.8243L6.18192 4.8843M4.22067 4.22805L4.14567 4.1868L4.07067 4.2243L4.08942 4.13805L4.02754 4.07617L4.11379 4.0668L4.15129 3.98992L4.18879 4.06867L4.27129 4.08367L4.20942 4.1418M4.45879 5.2143L4.38379 5.17117L4.30879 5.20867L4.32567 5.1243L4.26567 5.06242L4.35004 5.05117L4.38942 4.97617L4.42692 5.05492L4.50942 5.06992L4.44754 5.12805M6.92254 3.86617L6.85504 3.82867L6.78754 3.86242L6.80254 3.78742L6.75004 3.73117L6.82504 3.7218L6.86067 3.6543L6.89254 3.72555L6.96754 3.73867L6.91129 3.7893M6.78567 4.50742L6.73504 4.47742L6.68067 4.50367L6.69192 4.44367L6.65067 4.40055L6.71067 4.39305L6.73879 4.34055L6.76317 4.3968L6.81942 4.40617L6.77817 4.44742M4.11192 5.39242L4.06129 5.3643L4.01067 5.38867L4.02192 5.33242L3.98254 5.29117L4.03879 5.28367L4.06504 5.23305L4.08942 5.28555L4.14567 5.2968L4.10254 5.3343M7.85629 5.62117L7.81504 5.60055L7.77379 5.6193L7.78317 5.57617L7.75129 5.54617L7.79629 5.54055L7.81879 5.50305L7.83754 5.54055L7.88442 5.54992L7.84879 5.57805" fill="#FFFFEF"/>
<path fill-rule="evenodd" clip-rule="evenodd" d="M4.1118 5.39277L4.06117 5.36465L4.01055 5.38902L4.0218 5.33277L3.98242 5.29152L4.03867 5.28402L4.06492 5.2334L4.0893 5.2859L4.14555 5.29715L4.10242 5.33465" fill="#FFFFEF"/>
<path fill-rule="evenodd" clip-rule="evenodd" d="M4.11192 5.39242L4.06129 5.3643L4.01067 5.38867L4.02192 5.33242L3.98254 5.29117L4.03879 5.28367L4.06504 5.23305L4.08942 5.28555L4.14567 5.2968L4.10254 5.3343M4.89567 5.39055L4.84692 5.3643L4.79629 5.38867L4.80754 5.33242L4.76817 5.29117L4.82442 5.28367L4.85067 5.23305L4.87504 5.28555L4.93129 5.29492L4.88817 5.3343M4.79817 5.65305L4.74942 5.62492L4.69879 5.65117L4.71004 5.59492L4.67067 5.5518L4.72692 5.5443L4.75317 5.49367L4.77754 5.54617L4.83379 5.55742L4.79067 5.59492M6.42942 5.17867L6.38067 5.14867L6.32817 5.17492L6.33942 5.11867L6.30192 5.07555L6.35817 5.06992L6.38442 5.0193L6.40692 5.0718L6.46317 5.08117L6.42192 5.12055M5.95129 5.1768L5.90067 5.14867L5.85004 5.17492L5.86129 5.11867L5.82379 5.07555L5.88004 5.06992L5.90629 5.01742L5.92879 5.0718L5.98504 5.08117L5.94379 5.12055M4.65379 5.0118L4.62192 4.99305L4.59004 5.00805L4.59754 4.97242L4.57317 4.94617L4.60879 4.94242L4.62379 4.91055L4.63879 4.9443L4.67442 4.94992L4.64817 4.9743M7.79442 5.82555L7.74567 5.79742L7.69504 5.82367L7.70629 5.76742L7.66692 5.7243L7.72317 5.7168L7.74942 5.66617L7.77379 5.71867L7.83004 5.72992L7.78692 5.76742M7.39692 5.87992L7.35567 5.85367L7.31254 5.87617L7.32192 5.82742L7.29004 5.79367L7.33692 5.78805L7.35942 5.74492L7.37817 5.78992L7.42504 5.79742L7.38942 5.83117M7.58442 5.8743L7.54692 5.8518L7.50754 5.87055L7.51504 5.82742L7.48504 5.79555L7.52817 5.78992L7.54879 5.75242L7.56754 5.78992L7.61067 5.7993L7.57879 5.8293M8.12442 5.4018L8.08692 5.38305L8.04942 5.4018L8.05879 5.35867L8.02879 5.3268L8.07192 5.32117L8.09067 5.28367L8.10942 5.32305L8.14879 5.33055L8.11879 5.36055M7.39129 6.1443L7.34442 6.11805L7.29379 6.14055L7.30504 6.08805L7.26754 6.05055L7.32379 6.04492L7.34817 5.99805L7.37067 6.0468L7.42692 6.05617L7.38379 6.0918M7.39504 6.35805L7.35004 6.3318L7.30504 6.35617L7.31629 6.30367L7.28067 6.26617L7.33129 6.25867L7.35379 6.2118L7.37442 6.26055L7.42504 6.26992L7.38754 6.30742M7.03129 5.8743L6.99567 5.8518L6.95817 5.87055L6.96567 5.8293L6.93754 5.79742L6.97879 5.79367L6.99754 5.75617L7.01629 5.79367L7.05754 5.80117L7.02754 5.83117M6.69379 5.8743L6.65629 5.8518L6.61879 5.87055L6.62817 5.8293L6.59817 5.79742L6.64129 5.79367L6.66004 5.75617L6.67879 5.79367L6.71817 5.80117L6.68817 5.83117M6.11817 5.36992L6.08067 5.3493L6.04317 5.36805L6.05254 5.32492L6.02254 5.29492L6.06379 5.2893L6.08254 5.2518L6.10129 5.2893L6.14254 5.29867L6.11254 5.3268M6.18192 6.39555L6.15192 6.37867L6.11817 6.39555L6.12567 6.35805L6.10129 6.3318L6.13692 6.32805L6.15379 6.29617L6.16879 6.32992L6.20442 6.33555L6.17817 6.35992M5.31192 4.73617L5.23692 4.69305L5.16192 4.73055L5.17879 4.64617L5.11879 4.5843L5.20317 4.57305L5.24442 4.49805L5.28004 4.5768L5.36254 4.5918L5.30067 4.64992" fill="#FFFFEF"/>
<path fill-rule="evenodd" clip-rule="evenodd" d="M8.3324 5.3592C8.37882 5.23866 8.41519 5.11449 8.44115 4.98796C7.1699 3.87233 5.75428 3.30046 3.96553 3.41858C3.9007 3.54413 3.84736 3.67529 3.80615 3.81046C5.9249 3.60796 7.48115 4.54545 8.3324 5.3592Z" fill="white"/>
<path d="M7.76256 4.73255L7.80568 4.75692C7.7986 4.76945 7.79659 4.78421 7.80006 4.79817C7.80445 4.81174 7.81383 4.82314 7.82631 4.83005C7.83881 4.84005 7.85131 4.84442 7.86381 4.84317C7.87506 4.84317 7.88318 4.8388 7.88818 4.83005L7.89193 4.81317L7.88256 4.79442C7.87881 4.78817 7.86943 4.77692 7.85443 4.76067C7.83917 4.74464 7.82765 4.72543 7.82068 4.70442C7.81708 4.68846 7.81879 4.67176 7.82556 4.65687C7.83233 4.64197 7.84379 4.6297 7.85818 4.62192C7.87188 4.61646 7.88688 4.61516 7.90131 4.61817C7.91894 4.62223 7.93553 4.62989 7.95006 4.64067C7.97631 4.65942 7.99256 4.67942 7.99881 4.70067C8.00152 4.71119 8.00192 4.72216 7.99998 4.73285C7.99804 4.74353 7.9938 4.75366 7.98756 4.76255L7.94256 4.73442C7.94881 4.72192 7.95006 4.7113 7.94631 4.70255C7.94381 4.69255 7.93631 4.6838 7.92381 4.6763C7.91431 4.66832 7.90245 4.66371 7.89006 4.66317C7.88666 4.66306 7.88329 4.66387 7.88032 4.66552C7.87735 4.66717 7.87488 4.6696 7.87318 4.67255C7.86943 4.67755 7.86881 4.6838 7.87131 4.6913C7.87381 4.7013 7.88381 4.71505 7.90131 4.73255C7.91881 4.75005 7.93131 4.76567 7.93881 4.77942C7.94529 4.79177 7.94819 4.80569 7.9472 4.8196C7.9462 4.83351 7.94135 4.84687 7.93318 4.85817C7.9245 4.871 7.91205 4.88083 7.89756 4.8863C7.8835 4.89277 7.86778 4.89474 7.85256 4.89192C7.83631 4.88817 7.81881 4.88005 7.80006 4.86755C7.77256 4.8488 7.75568 4.82817 7.74943 4.80567C7.74598 4.79308 7.7452 4.7799 7.74714 4.76699C7.74907 4.75407 7.75369 4.7417 7.76068 4.73067L7.76256 4.73255ZM7.54506 4.59005L7.59193 4.61442C7.58548 4.6272 7.58414 4.64195 7.58818 4.65567C7.59298 4.66854 7.60231 4.67921 7.61443 4.68567C7.62818 4.69567 7.64068 4.69942 7.65193 4.69692C7.66318 4.69692 7.67131 4.69192 7.67631 4.68192L7.68006 4.66692C7.68006 4.66067 7.67693 4.65442 7.67068 4.64817L7.64068 4.61442C7.61943 4.59442 7.60693 4.57692 7.60318 4.56192C7.60047 4.55223 7.59973 4.54208 7.60102 4.5321C7.60231 4.52211 7.6056 4.51249 7.61068 4.5038C7.61813 4.4925 7.6285 4.48343 7.64068 4.47755C7.65363 4.47182 7.66793 4.46987 7.68193 4.47192C7.69928 4.47484 7.71585 4.48122 7.73068 4.49067C7.75943 4.50942 7.77631 4.5288 7.78131 4.5488C7.78485 4.55932 7.78602 4.57049 7.78472 4.58152C7.78343 4.59254 7.7797 4.60314 7.77381 4.61255L7.72693 4.5863C7.73318 4.5738 7.73443 4.56317 7.73068 4.55442C7.72568 4.54192 7.71756 4.53317 7.70631 4.52817C7.69606 4.52047 7.68349 4.51651 7.67068 4.51692C7.6676 4.51713 7.66462 4.5181 7.66201 4.51973C7.65939 4.52137 7.65722 4.52362 7.65568 4.5263C7.65193 4.5313 7.65131 4.53755 7.65381 4.54505C7.65756 4.55505 7.66818 4.5688 7.68568 4.5863C7.70443 4.60505 7.71693 4.62005 7.72318 4.6313C7.73048 4.64313 7.73435 4.65677 7.73435 4.67067C7.73435 4.68458 7.73048 4.69821 7.72318 4.71005C7.71528 4.72328 7.7035 4.73375 7.68943 4.74005C7.67537 4.74652 7.65965 4.74849 7.64443 4.74567C7.62514 4.74241 7.60666 4.73541 7.59006 4.72505C7.56582 4.71213 7.54715 4.69079 7.53756 4.66505C7.53355 4.65271 7.53215 4.63967 7.53344 4.62676C7.53473 4.61385 7.53869 4.60135 7.54506 4.59005ZM7.27881 4.5188L7.41568 4.2938L7.58068 4.39692L7.55818 4.43442L7.43818 4.35942L7.40818 4.41005L7.52068 4.47942L7.49631 4.51692L7.38381 4.44755L7.34631 4.50942L7.47193 4.58442L7.44943 4.62192L7.27881 4.5188ZM6.89068 4.20005L6.91131 4.16255L7.01256 4.21317L6.96568 4.30692C6.95068 4.31067 6.93193 4.31192 6.90943 4.31067C6.88779 4.30847 6.86678 4.3021 6.84756 4.29192C6.82501 4.28066 6.80566 4.26389 6.79131 4.24317C6.77841 4.22377 6.77186 4.20084 6.77256 4.17755C6.77376 4.15335 6.78015 4.12968 6.79131 4.10817C6.80257 4.08563 6.81934 4.06628 6.84006 4.05192C6.85976 4.03799 6.88343 4.03075 6.90756 4.0313C6.92506 4.0313 6.94506 4.03755 6.96756 4.05005C6.99756 4.0638 7.01693 4.0813 7.02568 4.10255C7.03543 4.12302 7.03743 4.14634 7.03131 4.16817L6.98068 4.15317C6.98378 4.14061 6.98246 4.12737 6.97693 4.11567C6.97193 4.10442 6.96193 4.09567 6.94693 4.08942C6.93811 4.08465 6.92842 4.08169 6.91844 4.08072C6.90846 4.07976 6.89838 4.0808 6.88881 4.0838C6.87006 4.09005 6.85381 4.1063 6.84006 4.13255C6.82631 4.1588 6.82193 4.18255 6.82693 4.2038C6.82985 4.21343 6.83467 4.22238 6.84111 4.23011C6.84755 4.23784 6.85548 4.2442 6.86443 4.2488C6.87443 4.25505 6.88506 4.25817 6.89631 4.25817H6.93006L6.94506 4.22817L6.89068 4.20005ZM5.19943 3.78192L5.23693 3.51942L5.31568 3.53255L5.33631 3.7163L5.40943 3.54755L5.48818 3.5588L5.45068 3.81755L5.40006 3.81005L5.43193 3.60567L5.34943 3.80255L5.29881 3.79505L5.27818 3.58317L5.24818 3.78942L5.19943 3.78192ZM4.93506 3.75005L4.95943 3.48755L5.15256 3.5063L5.14881 3.5513L5.00818 3.53817L5.00256 3.59442L5.13381 3.60755L5.12818 3.65255L4.99693 3.63942L4.99131 3.71067L5.13756 3.7238L5.13381 3.7688L4.93506 3.75005Z" fill="#309E3A"/>
<path d="M4.05923 3.58715C4.05923 3.55965 4.0636 3.53715 4.07235 3.51965C4.07903 3.50637 4.0879 3.49433 4.0986 3.48402C4.10808 3.47415 4.1196 3.46647 4.13235 3.46152C4.1511 3.45527 4.16985 3.45215 4.1886 3.45215C4.22735 3.4534 4.2586 3.4659 4.28235 3.48965C4.29434 3.50375 4.30322 3.52023 4.30839 3.538C4.31356 3.55577 4.31491 3.57444 4.31235 3.59277C4.31235 3.63402 4.29985 3.66715 4.27485 3.69215C4.24896 3.71461 4.21532 3.72605 4.1811 3.72402C4.1474 3.72354 4.11518 3.71012 4.0911 3.68652C4.07928 3.67302 4.07035 3.65723 4.06487 3.64014C4.05938 3.62305 4.05746 3.60501 4.05923 3.58715Z" fill="#309E3A"/>
<path d="M4.11365 3.58707C4.11365 3.61582 4.1199 3.63832 4.1324 3.65457C4.1449 3.67082 4.1624 3.67895 4.1849 3.67895C4.20441 3.67916 4.22325 3.67176 4.2374 3.65832C4.2499 3.64332 4.25677 3.6202 4.25802 3.58895C4.25927 3.55895 4.25302 3.53645 4.23927 3.52145C4.22619 3.50707 4.20804 3.49833 4.18865 3.49707C4.16886 3.49735 4.14999 3.50544 4.13615 3.51957C4.1224 3.53457 4.1149 3.55707 4.11365 3.58707Z" fill="#F7FFFF"/>
<path d="M4.36865 3.72148L4.3724 3.45898H4.4849C4.5124 3.45898 4.5324 3.46211 4.5449 3.46836C4.5574 3.47211 4.5674 3.48023 4.5749 3.49273C4.58615 3.51148 4.58615 3.51898 4.58615 3.53586C4.58595 3.55383 4.57929 3.57113 4.5674 3.58461C4.55318 3.59704 4.53553 3.60488 4.51678 3.60711L4.5449 3.62961C4.5524 3.63711 4.56178 3.65148 4.57303 3.67273L4.6049 3.72523H4.54115L4.50365 3.66523L4.4774 3.62773L4.46053 3.61648L4.43428 3.61273H4.42303V3.72148H4.36865Z" fill="#309E3A"/>
<path d="M4.42493 3.57141H4.46243C4.48868 3.57141 4.50493 3.57016 4.51118 3.56766C4.51743 3.56641 4.52243 3.56328 4.52618 3.55828C4.53118 3.55078 4.53305 3.54453 4.5318 3.53953C4.5318 3.52828 4.5293 3.52078 4.5243 3.51703C4.52055 3.51203 4.5143 3.50828 4.50555 3.50578H4.46805L4.42493 3.50391V3.57141Z" fill="white"/>
<path d="M4.66876 3.47241L4.76626 3.47804C4.78751 3.47804 4.80376 3.47991 4.81501 3.48366C4.82949 3.48918 4.84238 3.4982 4.85251 3.50991C4.86332 3.52302 4.87101 3.53841 4.87501 3.55491C4.88001 3.57241 4.88189 3.59304 4.88064 3.61679C4.88073 3.63593 4.87756 3.65495 4.87126 3.67304C4.86376 3.69179 4.85314 3.70679 4.83939 3.71804C4.82847 3.72704 4.81564 3.73345 4.80189 3.73679C4.78939 3.74054 4.77376 3.74179 4.75501 3.74054L4.65564 3.73491L4.66876 3.47241Z" fill="#309E3A"/>
<path d="M4.71934 3.51929L4.70996 3.69366H4.78121C4.79121 3.69366 4.79871 3.69054 4.80371 3.68429C4.80996 3.67929 4.81496 3.67116 4.81871 3.65991C4.82246 3.64866 4.82496 3.63241 4.82621 3.61116L4.82434 3.56429C4.82183 3.55433 4.81664 3.54525 4.80934 3.53804L4.78684 3.52491L4.74371 3.51929H4.71934Z" fill="white"/>
<path d="M5.95508 3.94152L6.01695 3.68652L6.09945 3.70527L6.15945 3.72402C6.1732 3.73152 6.1832 3.7434 6.18945 3.75965C6.1957 3.7759 6.19695 3.7934 6.1932 3.81215C6.18945 3.82715 6.1832 3.83965 6.17445 3.84965C6.16749 3.85779 6.15887 3.86434 6.14917 3.86887C6.13947 3.87339 6.12891 3.87579 6.1182 3.8759C6.1057 3.8759 6.08695 3.87277 6.06195 3.86652L6.03008 3.85715L6.00758 3.95465L5.95508 3.94152Z" fill="#309E3A"/>
<path d="M6.0565 3.74316L6.0415 3.81441L6.06963 3.82191C6.08963 3.82691 6.10338 3.82879 6.11088 3.82754C6.11808 3.82628 6.12475 3.82295 6.13008 3.81796C6.13541 3.81296 6.13916 3.80651 6.14088 3.79941C6.14088 3.79066 6.13963 3.78254 6.13713 3.77504C6.13301 3.76742 6.12639 3.76145 6.11838 3.75816L6.08275 3.74879L6.05838 3.74316H6.0565Z" fill="white"/>
<path d="M6.19873 4.0141L6.28686 3.7666L6.38998 3.8041C6.41748 3.8141 6.43623 3.82285 6.44623 3.83035C6.45623 3.8391 6.46248 3.85035 6.46498 3.8641C6.46873 3.88473 6.46873 3.89223 6.46498 3.90723C6.45748 3.92598 6.44623 3.93973 6.43123 3.94848C6.41623 3.95598 6.39748 3.95785 6.37498 3.9541C6.38248 3.96285 6.38873 3.97285 6.39373 3.9841L6.40873 4.03473L6.41998 4.09285L6.36186 4.07223L6.34311 4.00473L6.32998 3.95973L6.31873 3.94473C6.31498 3.93973 6.30686 3.93535 6.29436 3.9316L6.28498 3.92785L6.24748 4.03285L6.19873 4.0141Z" fill="#309E3A"/>
<path d="M6.30021 3.88805L6.33584 3.90117C6.36084 3.90992 6.37646 3.9143 6.38271 3.9143C6.38896 3.9143 6.39459 3.91242 6.39959 3.90867C6.40584 3.90492 6.40959 3.8993 6.41084 3.8918C6.41459 3.8843 6.41459 3.8768 6.41084 3.8693C6.40769 3.86226 6.40245 3.85637 6.39584 3.85242L6.35834 3.8393L6.32084 3.82617L6.29834 3.88805H6.30021Z" fill="white"/>
<path d="M6.50624 4.00488C6.51269 3.98293 6.52354 3.96251 6.53812 3.94488C6.54771 3.93368 6.55912 3.92417 6.57187 3.91676L6.60937 3.90363C6.62812 3.90238 6.64749 3.90488 6.66749 3.91113C6.70089 3.92054 6.7292 3.94278 6.74624 3.97301C6.76124 4.00301 6.76249 4.03863 6.74999 4.07988C6.7458 4.0976 6.73797 4.11425 6.72699 4.12878C6.71602 4.1433 6.70214 4.15538 6.68624 4.16426C6.65749 4.18051 6.62499 4.18301 6.58874 4.17176C6.55535 4.16235 6.52703 4.14011 6.50999 4.10988C6.50217 4.09358 6.4978 4.07584 6.49715 4.05777C6.49651 4.03971 6.4996 4.0217 6.50624 4.00488Z" fill="#309E3A"/>
<path d="M6.55869 4.01986C6.54994 4.04861 6.54994 4.07236 6.55869 4.09111C6.57181 4.11923 6.58119 4.12111 6.60181 4.12861C6.62056 4.13486 6.63931 4.13236 6.65806 4.12111C6.67556 4.11111 6.68869 4.09111 6.69744 4.06111C6.70744 4.03361 6.70744 4.01048 6.69744 3.99173C6.68902 3.9744 6.67424 3.96097 6.65619 3.95423C6.63742 3.9487 6.61724 3.95072 6.59994 3.95986C6.58119 3.96986 6.56744 3.98986 6.55869 4.01986Z" fill="white"/>
<path d="M7.01807 4.3702L7.13807 4.1377L7.23744 4.18832C7.25617 4.19731 7.27328 4.20935 7.28807 4.22395C7.29807 4.2327 7.30307 4.24457 7.30307 4.25957C7.30307 4.28207 7.30307 4.2877 7.29557 4.30082C7.28805 4.31747 7.27472 4.3308 7.25807 4.33832C7.23932 4.34332 7.21994 4.34207 7.19994 4.33457C7.20744 4.34707 7.21244 4.3577 7.21494 4.36645C7.21869 4.3777 7.22119 4.3952 7.22244 4.41895L7.22619 4.47895L7.16994 4.45082L7.16244 4.38145L7.15682 4.33457L7.14744 4.31582L7.12494 4.3027L7.11557 4.29707L7.06494 4.39457L7.01807 4.3702Z" fill="#309E3A"/>
<path d="M7.13428 4.25922L7.1699 4.27797C7.1924 4.29047 7.20678 4.29672 7.21303 4.29672C7.21928 4.29672 7.22553 4.29547 7.23178 4.29297C7.23678 4.29047 7.24115 4.28547 7.2449 4.27797C7.24865 4.27047 7.2499 4.26297 7.24865 4.25547L7.23553 4.23672L7.20178 4.21797L7.16428 4.19922L7.13428 4.25922Z" fill="white"/>
<path d="M7.98941 4.85074C8.00158 4.83149 8.01753 4.81491 8.03628 4.80199C8.04897 4.79405 8.06292 4.78834 8.07753 4.78511C8.09116 4.78257 8.10515 4.78257 8.11878 4.78511C8.13753 4.78886 8.15503 4.79636 8.17128 4.80761C8.20017 4.82663 8.22038 4.85627 8.22753 4.89011C8.23253 4.92261 8.22378 4.95698 8.20128 4.99323C8.19221 5.00878 8.18004 5.0223 8.16552 5.03294C8.15101 5.04359 8.13446 5.05113 8.11691 5.05511C8.08296 5.06132 8.04793 5.05391 8.01941 5.03448C7.99052 5.01547 7.9703 4.98582 7.96316 4.95199C7.95816 4.91824 7.96691 4.88449 7.98941 4.85074Z" fill="#309E3A"/>
<path d="M8.03614 4.88029C8.01864 4.90529 8.01177 4.92779 8.01552 4.94779C8.01914 4.96668 8.02988 4.98346 8.04552 4.99466C8.06427 5.00716 8.08302 5.01091 8.10177 5.00591C8.12052 5.00091 8.13864 4.98591 8.15614 4.96091C8.17364 4.93466 8.18052 4.91216 8.17677 4.89341C8.17302 4.87466 8.16302 4.85841 8.14677 4.84466C8.12052 4.82404 8.10927 4.82966 8.09052 4.83529C8.07177 4.83904 8.05302 4.85404 8.03427 4.88029H8.03614Z" fill="white"/>
<path d="M5.65869 3.83438L5.70182 3.65063L5.83682 3.68251L5.83119 3.71251L5.73182 3.69001L5.72244 3.73126L5.81432 3.75188L5.80682 3.78376L5.71494 3.76126L5.70369 3.81188L5.80682 3.83626L5.79932 3.86626L5.65869 3.83438Z" fill="#309E3A"/>
</svg>
