<svg width="55" height="23" viewBox="0 0 55 23" fill="none" xmlns="http://www.w3.org/2000/svg">
<g clip-path="url(#clip0_1378_8820)">
<path d="M5.89783 6.2793V10.6338H1.89866V6.2793H0V16.674H1.89866V12.4609H5.89783V16.674H7.79648V6.2793H5.89783Z" fill="#33475B"/>
<path d="M13.8731 13.3136C13.8731 13.7301 13.7076 14.1297 13.4131 14.4242C13.1185 14.7188 12.719 14.8843 12.3024 14.8843C11.8858 14.8843 11.4863 14.7188 11.1917 14.4242C10.8971 14.1297 10.7317 13.7301 10.7317 13.3136V8.86133H8.93066V13.3136C8.93066 14.2069 9.28553 15.0637 9.91727 15.6954C10.549 16.3271 11.4058 16.682 12.2991 16.682C13.1925 16.682 14.0493 16.3271 14.681 15.6954C15.3127 15.0637 15.6676 14.2069 15.6676 13.3136V8.86133H13.8731V13.3136Z" fill="#33475B"/>
<path d="M27.2169 9.32033C27.2169 8.40776 27.8206 8.11844 28.482 8.11844C29.015 8.11844 29.7193 8.524 30.1798 9.01611L31.3593 7.62633C30.7705 6.83 29.576 6.2793 28.5983 6.2793C26.6448 6.2793 25.2317 7.42355 25.2317 9.32033C25.2317 12.8395 29.5332 11.7232 29.5332 13.6925C29.5332 14.3 28.9434 14.8367 28.2681 14.8367C27.2029 14.8367 26.8578 14.3158 26.3685 13.7651L25.0596 15.1261C25.8968 16.154 26.9294 16.6759 28.1666 16.6759C30.0225 16.6759 31.5156 15.5177 31.5156 13.7074C31.5156 9.80036 27.214 11.0143 27.214 9.32033" fill="#33475B"/>
<path d="M53.8284 15.0132C52.7642 15.0132 52.4618 14.5528 52.4618 13.8476V10.7266H54.1159V9.14513H52.4618V7.05859L50.6357 7.87811V14.2355C50.6357 15.8616 51.7575 16.6812 53.2961 16.6812C53.5376 16.6856 53.7786 16.6663 54.0163 16.6235L54.4619 14.9834C54.2606 14.9974 54.0302 15.0114 53.8284 15.0114" fill="#33475B"/>
<path d="M20.7287 8.91396C19.8366 8.91396 19.2143 9.17257 18.6124 9.76329V6.3418H16.8086V12.6834C16.8086 15.0574 18.5249 16.6835 20.4533 16.6835C22.593 16.6835 24.4748 15.0286 24.4748 12.7997C24.4748 10.5987 22.7427 8.91492 20.7287 8.91492V8.91396ZM20.7175 14.8686C20.3127 14.8686 19.9171 14.7485 19.5805 14.5237C19.244 14.2988 18.9817 13.9791 18.8267 13.6052C18.6718 13.2312 18.6313 12.8197 18.7103 12.4227C18.7893 12.0257 18.9842 11.6611 19.2704 11.3749C19.5566 11.0886 19.9213 10.8937 20.3183 10.8148C20.7152 10.7358 21.1268 10.7763 21.5007 10.9312C21.8747 11.0861 22.1943 11.3484 22.4192 11.685C22.6441 12.0216 22.7641 12.4172 22.7641 12.822C22.7641 13.3648 22.5485 13.8853 22.1647 14.2691C21.7809 14.6529 21.2603 14.8686 20.7175 14.8686Z" fill="#33475B"/>
<path d="M40.3137 12.7042C40.3137 10.4715 38.4355 8.82031 36.2922 8.82031C34.3638 8.82031 32.6475 10.4464 32.6475 12.8204V19.1658H34.4512V15.7396C35.0522 16.3294 35.6755 16.5889 36.5666 16.5889C38.5807 16.5889 40.3128 14.9061 40.3128 12.7042H40.3137ZM38.6058 12.6818C38.6058 13.0866 38.4857 13.4823 38.2609 13.8188C38.036 14.1554 37.7163 14.4177 37.3424 14.5726C36.9684 14.7275 36.5569 14.7681 36.1599 14.6891C35.7629 14.6101 35.3983 14.4152 35.1121 14.129C34.8258 13.8427 34.6309 13.4781 34.552 13.0811C34.473 12.6841 34.5135 12.2726 34.6684 11.8987C34.8233 11.5247 35.0856 11.2051 35.4222 10.9802C35.7587 10.7553 36.1544 10.6353 36.5592 10.6353C37.102 10.6353 37.6225 10.8509 38.0063 11.2347C38.3901 11.6185 38.6058 12.1391 38.6058 12.6818Z" fill="#33475B"/>
<path d="M46.1228 8.79317V6.99965C46.3598 6.88896 46.5605 6.7132 46.7015 6.49283C46.8425 6.27246 46.9179 6.01659 46.9191 5.75496V5.71308C46.9181 5.34753 46.7724 4.99721 46.5139 4.73868C46.2554 4.48018 45.9051 4.33452 45.5395 4.33353H45.4977C45.1321 4.33452 44.7817 4.48018 44.5232 4.73868C44.2647 4.99721 44.1191 5.34753 44.1181 5.71308V5.75496C44.1193 6.01659 44.1947 6.27246 44.3357 6.49283C44.4767 6.7132 44.6774 6.88896 44.9144 6.99965V8.79317C44.2329 8.89739 43.5911 9.17981 43.0539 9.61182L38.1291 5.78007C38.1641 5.65367 38.1829 5.52333 38.1849 5.39219C38.1853 5.08437 38.0944 4.78335 37.9236 4.52721C37.7529 4.27107 37.5101 4.0713 37.2259 3.95317C36.9416 3.83503 36.6288 3.80384 36.3268 3.86353C36.0248 3.92322 35.7474 4.07111 35.5294 4.28851C35.3115 4.5059 35.163 4.78304 35.1025 5.08485C35.0421 5.38668 35.0726 5.69967 35.19 5.98415C35.3075 6.26868 35.5067 6.512 35.7624 6.6833C36.0181 6.8546 36.3189 6.94627 36.6267 6.94665C36.8971 6.94564 37.1624 6.87343 37.3961 6.7373L42.238 10.5067C41.8019 11.1647 41.5744 11.9389 41.5852 12.7282C41.596 13.5175 41.8446 14.2852 42.2985 14.9311L40.825 16.4046C40.7067 16.3669 40.5835 16.3468 40.4594 16.345C40.2064 16.345 39.9591 16.4201 39.7488 16.5606C39.5384 16.7011 39.3744 16.9009 39.2777 17.1346C39.1808 17.3684 39.1555 17.6255 39.2049 17.8737C39.2542 18.1218 39.376 18.3497 39.5549 18.5286C39.7338 18.7075 39.9617 18.8293 40.2098 18.8787C40.458 18.928 40.7152 18.9027 40.9489 18.8059C41.1826 18.709 41.3823 18.5451 41.5229 18.3348C41.6635 18.1244 41.7385 17.8771 41.7385 17.6241C41.7368 17.5 41.7167 17.3768 41.679 17.2586L43.1367 15.8008C43.6125 16.1643 44.1651 16.4142 44.7523 16.5316C45.3394 16.6489 45.9456 16.6305 46.5246 16.4778C47.1036 16.3251 47.6401 16.0422 48.0932 15.6506C48.546 15.2589 48.9035 14.769 49.1383 14.2181C49.3731 13.6673 49.4785 13.0701 49.4473 12.4722C49.4162 11.8742 49.2485 11.2913 48.9576 10.768C48.6668 10.2446 48.2604 9.79458 47.7689 9.45236C47.2776 9.11014 46.7146 8.88464 46.1228 8.79317ZM45.519 14.6929C45.1202 14.6929 44.7302 14.5746 44.3986 14.353C44.0669 14.1314 43.8084 13.8164 43.6558 13.4479C43.5031 13.0794 43.4632 12.6738 43.541 12.2826C43.6188 11.8914 43.8109 11.532 44.0929 11.25C44.375 10.968 44.7344 10.7759 45.1256 10.698C45.5168 10.6202 45.9223 10.6601 46.2908 10.8128C46.6594 10.9655 46.9744 11.2239 47.196 11.5556C47.4176 11.8873 47.5359 12.2772 47.5359 12.6761C47.5359 13.211 47.3234 13.7239 46.9451 14.1022C46.5669 14.4804 46.0539 14.6929 45.519 14.6929Z" fill="#FF7A59"/>
</g>
<defs>
<clipPath id="clip0_1378_8820">
<rect width="54.625" height="23" fill="white"/>
</clipPath>
</defs>
</svg>
