<svg width="32" height="32" viewBox="0 0 32 32" fill="none" xmlns="http://www.w3.org/2000/svg">
<path fill-rule="evenodd" clip-rule="evenodd" d="M13.1887 11.6393C13.1739 11.6393 13.1452 11.6393 13.1303 11.6393C12.884 11.6093 12.6813 11.3836 12.6813 11.1279C12.6665 10.8871 12.5359 5.26072 15.7098 3.98204C16.507 3.66609 17.2469 3.72623 17.87 4.19268C18.6375 4.74929 19.1884 5.8625 19.5217 7.48725C19.7532 8.63058 19.7967 9.62342 19.7967 9.6686C19.8115 9.90926 19.6236 10.0899 19.3763 10.0447C19.1301 10.0146 18.9273 9.78898 18.9273 9.54823C18.8838 8.52527 18.5505 5.71211 17.4496 4.89969C17.1015 4.64397 16.6662 4.61385 16.145 4.82449C13.4201 5.92264 13.5507 11.2031 13.5507 11.2632C13.5507 11.4739 13.4063 11.6393 13.1887 11.6393Z" fill="#595961"/>
<path opacity="0.46" fill-rule="evenodd" clip-rule="evenodd" d="M17.7099 4.2232C17.1303 3.80193 16.4498 3.74179 15.71 4.02762C14.4202 4.55411 13.5073 5.9382 13.0583 8.04436C12.725 9.5938 12.7685 10.993 12.7685 11.0531C12.7685 11.1283 12.7972 11.2036 12.8555 11.2637C12.9129 11.3239 12.9713 11.3691 13.0435 11.3691C13.0583 11.3691 13.0731 11.3691 13.087 11.3691C13.2175 11.3691 13.3194 11.2637 13.3194 11.1283C13.3194 11.0682 13.1889 5.69745 15.986 4.56917C16.5508 4.34358 17.0433 4.37359 17.4498 4.67449C18.6228 5.53199 18.971 8.43551 19.0145 9.47353C19.0145 9.62392 19.1451 9.77442 19.3043 9.78938C19.4497 9.80444 19.5654 9.69912 19.5654 9.54872C19.5506 9.36821 19.3914 5.45679 17.7099 4.2232Z" fill="#B2B2C2"/>
<path opacity="0.46" fill-rule="evenodd" clip-rule="evenodd" d="M13.0582 11.1885C13.0433 11.1885 13.0433 11.1885 13.0295 11.1885C12.9424 11.1735 12.8692 11.0832 12.8554 10.9929C12.8554 10.9327 12.8119 9.56376 13.1452 8.01421C13.5794 5.95324 14.4933 4.5842 15.7534 4.07268C16.4635 3.78684 17.1015 3.84708 17.6524 4.23823C19.2755 5.42665 19.4347 9.27792 19.4347 9.44338C19.4347 9.53364 19.3625 9.59378 19.2755 9.57882C19.1885 9.56376 19.1162 9.48856 19.1014 9.38324C19.1014 9.33806 18.9422 5.56208 17.4783 4.47889C17.0431 4.16303 16.5071 4.11786 15.8988 4.35851C13.0582 5.54702 13.1887 10.9929 13.1887 11.0531C13.2026 11.1283 13.1452 11.1885 13.0582 11.1885Z" fill="#B2B2C2"/>
<path opacity="0.62" fill-rule="evenodd" clip-rule="evenodd" d="M14.2322 6.88531C14.348 6.65971 14.4637 6.43402 14.5655 6.19336C14.522 6.26856 14.2322 7.05087 13.348 6.93049C13.3331 6.93049 13.8692 7.09594 14.2322 6.88531Z" fill="#595961"/>
<path opacity="0.62" fill-rule="evenodd" clip-rule="evenodd" d="M13.9124 7.84846C13.9994 7.60771 14.0865 7.35199 14.1448 7.11133C14.1161 7.20159 13.9707 8.01392 13.043 8.01392C13.043 8.01392 13.5791 8.11923 13.9124 7.84846Z" fill="#595961"/>
<path opacity="0.62" fill-rule="evenodd" clip-rule="evenodd" d="M19.0001 5.90673C18.8844 5.63586 18.7538 5.38015 18.6232 5.10938C18.6667 5.19963 19.1019 6.05713 18.6094 6.67388C18.6094 6.67388 18.9862 6.37308 19.0001 5.90673Z" fill="#595961"/>
<path opacity="0.62" fill-rule="evenodd" clip-rule="evenodd" d="M18.2032 4.55327C17.9708 4.35769 17.7393 4.17717 17.5068 4.01172C17.5939 4.08692 18.3624 4.64353 18.3189 5.48607C18.304 5.48607 18.4346 4.9896 18.2032 4.55327Z" fill="#595961"/>
<path opacity="0.62" fill-rule="evenodd" clip-rule="evenodd" d="M14.6521 6.05743C14.8262 5.87691 14.9706 5.68134 15.1298 5.4707C15.0725 5.53084 14.5938 6.14769 13.7393 5.92199C13.7393 5.92199 14.2318 6.19286 14.6521 6.05743Z" fill="#595961"/>
<path opacity="0.62" fill-rule="evenodd" clip-rule="evenodd" d="M15.1883 5.36674C15.391 5.21634 15.579 5.06585 15.7679 4.90039C15.6957 4.94557 15.1013 5.44194 14.2754 5.0809C14.2754 5.0809 14.7531 5.42688 15.1883 5.36674Z" fill="#595961"/>
<path opacity="0.62" fill-rule="evenodd" clip-rule="evenodd" d="M15.9706 4.86839C16.2169 4.79319 16.4494 4.70293 16.6808 4.61268C16.5938 4.6427 15.8549 4.91347 15.1299 4.3418C15.1447 4.3418 15.5216 4.79319 15.9706 4.86839Z" fill="#595961"/>
<path opacity="0.62" fill-rule="evenodd" clip-rule="evenodd" d="M16.6817 4.59787C16.8845 4.62799 17.0872 4.64305 17.29 4.65811C17.2178 4.64305 16.5798 4.59788 16.2178 3.99609C16.2178 3.99609 16.3632 4.4023 16.6817 4.59787Z" fill="#595961"/>
<path opacity="0.62" fill-rule="evenodd" clip-rule="evenodd" d="M17.5218 4.93022C17.6662 5.09578 17.8264 5.26124 17.9995 5.41164C17.9421 5.3515 17.4496 4.85503 17.5653 4.23828C17.5505 4.23828 17.3912 4.58425 17.5218 4.93022Z" fill="#595961"/>
<path opacity="0.74" fill-rule="evenodd" clip-rule="evenodd" d="M19.2755 9.36721C19.2755 9.20165 19.1163 5.39556 17.5367 4.23726C17.2321 4.01157 16.8987 3.90625 16.5506 3.90625C16.2895 3.90625 16.0145 3.96639 15.7247 4.08676C14.4636 4.58323 13.5794 5.92215 13.1452 7.96806C12.8119 9.50255 12.8554 10.8716 12.8554 10.9317C12.8554 10.9769 12.8989 11.022 12.9424 11.022H12.9563C12.9998 11.022 13.0295 10.9919 13.0295 10.9468C13.0295 10.8866 12.8841 5.39556 15.7969 4.2222C16.4348 3.96639 16.9858 4.01157 17.4497 4.35754C18.956 5.45579 19.1162 9.29201 19.1162 9.33709C19.1162 9.38227 19.1598 9.42735 19.2033 9.42735C19.2033 9.42735 19.2033 9.42735 19.2171 9.42735C19.2468 9.44241 19.2755 9.41229 19.2755 9.36721Z" fill="url(#paint0_linear_1378_8579)"/>
<path fill-rule="evenodd" clip-rule="evenodd" d="M19.5215 7.48809C19.1882 5.86335 18.6373 4.76509 17.8698 4.19342C17.4494 3.89263 16.9994 3.75719 16.5068 3.78731C16.8985 3.81733 17.2605 3.95277 17.5938 4.19342C18.3623 4.75013 18.9133 5.86335 19.2466 7.48809C19.478 8.63143 19.5215 9.62427 19.5215 9.66944C19.5215 9.84996 19.4345 9.9854 19.2891 10.0304C19.3188 10.0455 19.3475 10.0455 19.3623 10.0455C19.6086 10.0756 19.7965 9.9101 19.7827 9.66944C19.7965 9.62427 19.753 8.64648 19.5215 7.48809Z" fill="url(#paint1_linear_1378_8579)"/>
<path fill-rule="evenodd" clip-rule="evenodd" d="M15.8698 4.82501C13.1449 5.92317 13.2754 11.2036 13.2754 11.2638C13.2754 11.4443 13.1884 11.5797 13.043 11.6248C13.0726 11.6399 13.0865 11.6399 13.1162 11.6399C13.13 11.6399 13.1597 11.6399 13.1735 11.6399C13.3911 11.6399 13.5355 11.4744 13.5355 11.2638C13.5355 11.2036 13.406 5.93823 16.1299 4.84007C16.3188 4.76487 16.4929 4.7197 16.6521 4.70464C16.4197 4.65956 16.1596 4.70464 15.8698 4.82501Z" fill="url(#paint2_linear_1378_8579)"/>
<path fill-rule="evenodd" clip-rule="evenodd" d="M19.9994 6.13342L7.71012 10.0748C7.71012 10.0748 7.18888 10.2253 7.05832 10.3908C6.92776 10.5562 6.89907 11.0226 6.89907 11.0226L5 26.2169L19.2605 28.985L20.3624 6.11836C20.2031 6.08824 20.0429 6.11836 19.9994 6.13342Z" fill="url(#paint3_linear_1378_8579)"/>
<path fill-rule="evenodd" clip-rule="evenodd" d="M24.2469 8.08791C24.2469 8.08791 24.232 7.96753 24.1598 7.92245C24.1014 7.87728 24.0292 7.87728 24.0292 7.87728L22.0145 7.72688L20.5368 6.20745C20.4784 6.16228 20.4201 6.13225 20.3479 6.11719L19.2471 28.9839L26.9707 27.2538L24.2469 8.08791Z" fill="url(#paint4_linear_1378_8579)"/>
<path fill-rule="evenodd" clip-rule="evenodd" d="M14.9267 18.8301C14.7091 18.5293 14.4489 18.2585 14.1878 18.0177C13.9267 17.7771 13.6517 17.5815 13.3758 17.401C13.1879 17.2806 13.0138 17.1602 12.8684 17.0398C12.724 16.9196 12.6083 16.7992 12.5212 16.6939C12.4342 16.5735 12.362 16.4682 12.3184 16.3479C12.2749 16.2275 12.2601 16.1071 12.2601 15.9868C12.2601 15.8213 12.3036 15.6559 12.362 15.5204C12.4193 15.3851 12.5212 15.2647 12.6221 15.1594C12.7388 15.0541 12.8684 14.9789 13.0286 14.9187C13.1879 14.8585 13.3758 14.8285 13.5785 14.8134C13.7961 14.7984 14.0137 14.8134 14.2165 14.8285C14.4192 14.8434 14.6082 14.8886 14.7961 14.9337C14.9702 14.9789 15.1442 15.039 15.2886 15.0993C15.434 15.1594 15.5784 15.2195 15.6803 15.2798L16.6368 12.3312C16.4924 12.256 16.3183 12.1807 16.1294 12.1356C15.9266 12.0754 15.709 12.0303 15.4627 12.0002C15.2165 11.9701 14.9553 11.9551 14.6804 11.9551C14.4054 11.9551 14.1156 11.9701 13.811 12.0152C13.1592 12.1055 12.5786 12.286 12.0574 12.5568C11.5648 12.8126 11.1296 13.1435 10.7676 13.5497C10.4194 13.9409 10.1444 14.3921 9.9417 14.9037C9.75279 15.4001 9.63709 15.9568 9.60841 16.5584C9.59357 16.9196 9.62224 17.2505 9.70928 17.5514C9.78148 17.8523 9.89819 18.1381 10.0574 18.4089C10.2018 18.6797 10.3907 18.9204 10.5935 19.146C10.7962 19.3717 11.0425 19.5823 11.2888 19.7779C11.4916 19.9283 11.6657 20.0787 11.811 20.2141C11.9555 20.3496 12.0722 20.4849 12.1582 20.6354C12.2453 20.7707 12.3036 20.9062 12.3471 21.0566C12.3906 21.192 12.4055 21.3424 12.3906 21.4929C12.3906 21.6433 12.3472 21.7937 12.2888 21.9141C12.2314 22.0345 12.1582 22.1548 12.0425 22.2451C11.9416 22.3354 11.8111 22.3955 11.6657 22.4256C11.5213 22.4556 11.3472 22.4707 11.1583 22.4407C10.9417 22.4106 10.724 22.3504 10.5213 22.2601C10.3185 22.1849 10.1148 22.0795 9.92691 21.9742C9.73899 21.869 9.56491 21.7486 9.41951 21.6433C9.26027 21.538 9.12969 21.4176 9.02881 21.3274L8.37598 23.5689C8.47786 23.7193 8.6223 23.8548 8.78154 23.9901C8.94177 24.1256 9.12972 24.2609 9.34731 24.3963C9.56491 24.5167 9.79636 24.637 10.0426 24.7423C10.2889 24.8476 10.5648 24.9379 10.8398 25.0132H10.8546H10.8685H10.8833H10.8982C11.4916 25.1485 12.0573 25.1786 12.5934 25.1034C13.1443 25.0281 13.6517 24.8326 14.0859 24.5318C14.535 24.2158 14.8979 23.7945 15.1729 23.2379C15.4489 22.6813 15.6081 22.0043 15.6368 21.2371C15.6516 20.7557 15.5933 20.3345 15.4627 19.9434C15.3322 19.4921 15.1443 19.146 14.9267 18.8301Z" fill="url(#paint5_linear_1378_8579)"/>
<path opacity="0.226763" fill-rule="evenodd" clip-rule="evenodd" d="M8.47082 23.6915C8.43719 23.6516 8.40551 23.6109 8.37682 23.5691L9.02965 21.3275C9.03855 21.3358 9.04843 21.3445 9.05832 21.3533C9.15525 21.44 9.27595 21.5478 9.42035 21.6434C9.56575 21.7487 9.73982 21.8691 9.92775 21.9744C10.1157 22.0796 10.3194 22.185 10.5221 22.2603C10.7249 22.3505 10.9425 22.4107 11.1591 22.4408C11.3481 22.4708 11.5221 22.4558 11.6665 22.4257C11.8119 22.3956 11.9425 22.3355 12.0434 22.2452C12.1591 22.1549 12.2323 22.0346 12.2897 21.9142C12.348 21.7938 12.3915 21.6434 12.3915 21.493C12.4063 21.3425 12.3915 21.1921 12.348 21.0567C12.3045 20.9063 12.2461 20.7709 12.1591 20.6355C12.077 20.4925 11.9682 20.3632 11.8327 20.2344C11.9039 20.3148 11.9642 20.3974 12.0147 20.485C12.1017 20.6205 12.1591 20.7558 12.2026 20.9063C12.2461 21.0416 12.261 21.1921 12.2461 21.3425C12.2461 21.493 12.2026 21.6434 12.1453 21.7638C12.0869 21.8842 12.0147 22.0044 11.899 22.0947C11.7971 22.185 11.6665 22.2452 11.5221 22.2752C11.3767 22.3053 11.2027 22.3204 11.0147 22.2903C10.7971 22.2603 10.5795 22.2 10.3768 22.1098C10.174 22.0346 9.97123 21.9292 9.78232 21.8239C9.5944 21.7186 9.42036 21.5983 9.27595 21.493C9.13056 21.3974 9.00988 21.2896 8.91295 21.203C8.90306 21.1941 8.89411 21.1854 8.88422 21.1771L8.23242 23.4186C8.29671 23.5143 8.37883 23.604 8.47082 23.6915ZM10.6062 19.1598C10.5518 19.1059 10.4994 19.0513 10.449 18.9957C10.2462 18.77 10.0583 18.5294 9.9129 18.2586C9.75366 17.9877 9.63792 17.7019 9.56572 17.4011C9.47868 17.1002 9.44898 16.7692 9.46382 16.4081C9.4925 15.8064 9.60925 15.2498 9.79717 14.7533C9.99993 14.2419 10.2759 13.7906 10.6231 13.3994C10.9861 12.9932 11.4202 12.6622 11.9128 12.4065C12.435 12.1357 13.0146 11.9552 13.6664 11.8649C13.9711 11.8197 14.2609 11.8047 14.5359 11.8047C14.8118 11.8047 15.0729 11.8197 15.3192 11.8499C15.5655 11.88 15.7831 11.9251 15.9858 11.9853C16.1738 12.0304 16.3478 12.1056 16.4932 12.1808L16.4705 12.2512C16.3656 12.2056 16.2509 12.1645 16.1302 12.1357C15.9275 12.0756 15.7099 12.0304 15.4636 12.0003C15.2173 11.9702 14.9562 11.9552 14.6812 11.9552C14.4063 11.9552 14.1165 11.9702 13.8119 12.0153C13.1601 12.1056 12.5795 12.2861 12.0582 12.557C11.5656 12.8127 11.1304 13.1436 10.7684 13.5498C10.4203 13.941 10.1453 14.3922 9.94254 14.9038C9.75362 15.4002 9.63793 15.9569 9.60924 16.5585C9.59441 16.9197 9.62308 17.2506 9.71012 17.5515C9.78232 17.8524 9.89902 18.1382 10.0583 18.409C10.2027 18.6798 10.3916 18.9205 10.5943 19.1461C10.5983 19.1506 10.6023 19.1553 10.6062 19.1598ZM12.5745 16.7556C12.6536 16.8451 12.7525 16.9425 12.8693 17.04C13.0147 17.1603 13.1887 17.2807 13.3767 17.4011C13.6526 17.5816 13.9276 17.7772 14.1887 18.0178C14.2648 18.0879 14.34 18.1605 14.4152 18.2357C14.2945 18.1059 14.1689 17.9832 14.0432 17.8674C13.7831 17.6267 13.5072 17.4311 13.2323 17.2506C13.0433 17.1302 12.8693 17.0099 12.7249 16.8896C12.6705 16.8447 12.621 16.7998 12.5745 16.7556Z" fill="black"/>
<path opacity="0.41" fill-rule="evenodd" clip-rule="evenodd" d="M22.5068 24.7271L22.0142 7.72743L21.9272 7.63718L22.1597 24.4863C22.1597 24.4863 20.1162 27.7057 19.8116 27.6154C19.3625 27.4801 20.6958 6.37347 20.6958 6.37347L20.5504 6.22307C20.4931 6.17789 20.4199 6.14787 20.3625 6.13281L19.2755 28.6836L19.2607 28.9995L19.6375 28.503L22.5068 24.7271Z" fill="url(#paint6_linear_1378_8579)"/>
<path fill-rule="evenodd" clip-rule="evenodd" d="M16.9565 7.11144C16.7834 7.81845 16.5658 8.48038 16.4066 8.88659C16.3047 9.12734 16.4204 9.35294 16.638 9.38306C16.8705 9.41317 17.1306 9.24762 17.2176 9.00696C17.2325 8.96179 17.6231 7.984 17.8704 6.82561V6.81055L16.9565 7.11144Z" fill="url(#paint7_linear_1378_8579)"/>
<path fill-rule="evenodd" clip-rule="evenodd" d="M10.42 9.21717C10.2173 9.66846 10.0145 10.0596 9.8691 10.3304C9.73953 10.5561 9.81172 10.7967 10.0293 10.8569C10.2459 10.9322 10.5357 10.7967 10.6663 10.571C10.6811 10.541 11.1015 9.80389 11.4783 8.87109L10.42 9.21717Z" fill="url(#paint8_linear_1378_8579)"/>
<path opacity="0.32" fill-rule="evenodd" clip-rule="evenodd" d="M19.2607 28.9841L22.5068 24.7266L27.0002 27.254L19.2607 28.9841Z" fill="url(#paint9_linear_1378_8579)"/>
<path opacity="0.19" fill-rule="evenodd" clip-rule="evenodd" d="M19.2607 28.9841L22.4781 24.7266L27.0002 27.254L19.2607 28.9841Z" fill="url(#paint10_linear_1378_8579)"/>
<path opacity="0.19" fill-rule="evenodd" clip-rule="evenodd" d="M19.2607 28.9841L22.4781 24.7266L27.0002 27.254L19.2607 28.9841Z" fill="url(#paint11_linear_1378_8579)"/>
<path opacity="0.6" fill-rule="evenodd" clip-rule="evenodd" d="M16.1007 17.0697C17.7821 19.4315 18.9126 21.989 19.4774 24.4712L20.3616 6.10269C20.2024 6.07267 20.0422 6.10269 19.9986 6.11775L7.70939 10.0743C7.70939 10.0743 7.59363 10.1043 7.44824 10.1646C10.5648 11.2778 13.6804 13.6698 16.1007 17.0697Z" fill="url(#paint12_linear_1378_8579)"/>
<path fill-rule="evenodd" clip-rule="evenodd" d="M24.1737 7.93849C24.2469 7.99872 24.2469 8.08898 24.2469 8.08898L26.9421 27.2397L22.5071 24.7124L22.0146 7.71289L24.0006 7.86329C24.0145 7.87835 24.1015 7.87835 24.1737 7.93849Z" fill="url(#paint13_linear_1378_8579)"/>
<path fill-rule="evenodd" clip-rule="evenodd" d="M23.8542 7.98285C23.8542 7.98285 23.9412 7.98285 24.0134 8.05805C24.0856 8.11829 24.1004 8.20854 24.1004 8.20854L26.7531 27.1487L26.9559 27.2691L24.2596 8.10323C24.2596 8.10323 24.2458 8.01297 24.1874 7.95283C24.1152 7.89259 24.0134 7.89259 24.0134 7.89259L22.0283 7.74219L23.8542 7.98285Z" fill="url(#paint14_linear_1378_8579)"/>
<path fill-rule="evenodd" clip-rule="evenodd" d="M5 26.2163L19.2605 28.9844L19.9568 13.3086L6.77338 13.6834L5 26.2163Z" fill="url(#paint15_linear_1378_8579)"/>
<path opacity="0.3" fill-rule="evenodd" clip-rule="evenodd" d="M9.68148 10.2931C9.55191 10.6588 9.67948 11.0429 9.96829 11.1514C10.2561 11.2598 10.5944 11.0513 10.7249 10.6858C10.8545 10.3202 10.726 9.9359 10.4381 9.82753C10.1503 9.71906 9.81105 9.92753 9.68148 10.2931Z" fill="white"/>
<path opacity="0.89" fill-rule="evenodd" clip-rule="evenodd" d="M9.6657 10.1193C9.53613 10.4849 9.66469 10.8692 9.95251 10.9775C10.2403 11.086 10.5796 10.8775 10.7092 10.512C10.8387 10.1463 10.7112 9.76207 10.4224 9.6537C10.1345 9.54524 9.79626 9.75371 9.6657 10.1193Z" fill="black"/>
<path fill-rule="evenodd" clip-rule="evenodd" d="M22.0291 7.72688L20.5504 6.20745C20.4931 6.16228 20.4199 6.13225 20.3625 6.11719L19.2607 28.9839L22.5216 24.7113L22.0291 7.72688Z" fill="url(#paint16_linear_1378_8579)"/>
<path fill-rule="evenodd" clip-rule="evenodd" d="M20.0001 6.13324L7.7108 10.0747C7.7108 10.0747 7.18956 10.2252 7.059 10.3907C7.04416 10.4057 7.04411 10.4208 7.03027 10.4358L19.4205 6.88542C19.5224 6.8553 19.7686 6.76505 19.7399 7.50217L18.9862 28.9548L19.2474 29L20.3482 6.13324C20.2038 6.08806 20.0436 6.11818 20.0001 6.13324Z" fill="url(#paint17_linear_1378_8579)"/>
<path fill-rule="evenodd" clip-rule="evenodd" d="M20.0001 6.13324L7.7108 10.0747C7.7108 10.0747 7.18956 10.2252 7.059 10.3907C7.04416 10.4057 7.04411 10.4208 7.03027 10.4358L9.89958 9.60833L19.7686 6.43413C19.8121 6.41907 19.9714 6.38896 20.1307 6.41908L19.0437 28.9548L19.2474 29L20.3482 6.13324C20.2038 6.08806 20.0436 6.11818 20.0001 6.13324Z" fill="url(#paint18_linear_1378_8579)"/>
<path opacity="0.32" fill-rule="evenodd" clip-rule="evenodd" d="M23.1599 25.089L22.507 24.7129L19.2471 28.9854L19.4202 28.9402C19.4202 28.9402 22.2904 25.1041 22.5506 24.9837C22.7395 24.9085 23.1599 25.089 23.1599 25.089Z" fill="url(#paint19_linear_1378_8579)"/>
<path opacity="0.57" fill-rule="evenodd" clip-rule="evenodd" d="M19.2607 28.9854L22.5216 24.7129C22.5068 24.728 20.4495 27.0597 19.2607 28.9854Z" fill="url(#paint20_linear_1378_8579)"/>
<path opacity="0.46" fill-rule="evenodd" clip-rule="evenodd" d="M27.0003 27.254L22.5218 24.7266C22.507 24.7266 23.0292 24.8169 27.0003 27.254Z" fill="url(#paint21_linear_1378_8579)"/>
<path opacity="0.3" fill-rule="evenodd" clip-rule="evenodd" d="M16.3069 8.79306C16.1764 9.15871 16.3049 9.54298 16.5928 9.65144C16.8816 9.75991 17.2199 9.55144 17.3494 9.18588C17.48 8.82022 17.3514 8.43596 17.0636 8.32749C16.7758 8.21912 16.4365 8.4275 16.3069 8.79306Z" fill="white"/>
<path opacity="0.89" fill-rule="evenodd" clip-rule="evenodd" d="M16.2907 8.62121C16.1611 8.98687 16.2897 9.37113 16.5775 9.47959C16.8654 9.58796 17.2046 9.37959 17.3341 9.01393C17.4637 8.64837 17.3361 8.26412 17.0483 8.15565C16.7595 8.04718 16.4212 8.25565 16.2907 8.62121Z" fill="black"/>
<path fill-rule="evenodd" clip-rule="evenodd" d="M10.1883 10.8561C10.1735 10.8561 10.1448 10.8561 10.1299 10.8561C9.89852 10.8261 9.73931 10.6004 9.76799 10.3447C9.79668 10.1039 10.6225 4.47752 14.014 3.19885C14.8686 2.88289 15.5936 2.94303 16.1445 3.40948C16.8111 3.96609 17.1731 5.07931 17.2315 6.70405C17.275 7.84739 17.1445 8.84023 17.1445 8.88541C17.1158 9.12606 16.8982 9.30667 16.6658 9.2615C16.4343 9.23138 16.2602 9.00578 16.3038 8.76503C16.4343 7.74207 16.5787 4.92891 15.6084 4.11649C15.3038 3.86077 14.8835 3.83065 14.3187 4.04129C11.4059 5.13945 10.6373 10.4199 10.6373 10.4649C10.579 10.6906 10.4059 10.8561 10.1883 10.8561Z" fill="#595961"/>
<path opacity="0.46" fill-rule="evenodd" clip-rule="evenodd" d="M15.9713 3.4399C15.464 3.01873 14.7973 2.95859 14.0001 3.24442C12.6233 3.77091 11.4641 5.1549 10.6669 7.246C10.0735 8.79554 9.86972 10.1946 9.86972 10.2548C9.85588 10.33 9.88458 10.4052 9.9281 10.4655C9.97162 10.5256 10.0299 10.5708 10.1022 10.5708C10.116 10.5708 10.1308 10.5708 10.1457 10.5708C10.2762 10.5708 10.3919 10.4655 10.4068 10.33C10.4206 10.2699 11.1892 4.89919 14.189 3.77091C14.7973 3.54522 15.2898 3.57534 15.638 3.87623C16.6666 4.73373 16.5223 7.63715 16.3917 8.67517C16.3769 8.82566 16.4787 8.97606 16.6231 8.99112C16.7685 9.00618 16.9129 8.90086 16.9278 8.75046C16.9426 8.58491 17.45 4.67359 15.9713 3.4399Z" fill="#B2B2C2"/>
<path opacity="0.81" fill-rule="evenodd" clip-rule="evenodd" d="M10.1303 10.4053C10.1155 10.4053 10.1155 10.4053 10.1016 10.4053C10.0146 10.3902 9.95622 10.3 9.97105 10.2097C9.98589 10.1495 10.1738 8.78055 10.7683 7.231C11.5655 5.17003 12.696 3.801 14.0431 3.28947C14.8116 3.00364 15.4347 3.06387 15.9125 3.45503C17.3328 4.64344 16.8402 8.49472 16.8115 8.66017C16.7967 8.75043 16.7245 8.81057 16.6226 8.79561C16.5366 8.78055 16.4782 8.70535 16.4782 8.60003C16.4782 8.55486 16.9708 4.77888 15.6959 3.69568C15.319 3.40985 14.7968 3.37983 14.1598 3.62048C11.1016 4.77888 10.3044 10.2097 10.3044 10.2698C10.2896 10.345 10.2173 10.4053 10.1303 10.4053Z" fill="#B2B2C2"/>
<path opacity="0.42" fill-rule="evenodd" clip-rule="evenodd" d="M12.043 6.10211C12.2022 5.87651 12.3476 5.65082 12.492 5.41016C12.4346 5.48536 12.0142 6.26767 11.1448 6.14729C11.13 6.14729 11.6374 6.31274 12.043 6.10211Z" fill="#595961"/>
<path opacity="0.42" fill-rule="evenodd" clip-rule="evenodd" d="M11.5503 7.06526C11.6808 6.82451 11.8114 6.56878 11.9122 6.32812C11.8687 6.41838 11.5789 7.23071 10.666 7.23071C10.666 7.23071 11.1734 7.33603 11.5503 7.06526Z" fill="#595961"/>
<path opacity="0.42" fill-rule="evenodd" clip-rule="evenodd" d="M11.1741 8.05826C11.2898 7.80245 11.3768 7.54673 11.4639 7.29102C11.4204 7.38128 11.2611 8.20866 10.3047 8.31398C10.3047 8.29892 10.8259 8.35915 11.1741 8.05826Z" fill="#595961"/>
<path opacity="0.62" fill-rule="evenodd" clip-rule="evenodd" d="M16.9704 5.12548C16.8982 4.85461 16.826 4.5989 16.7241 4.32812C16.7528 4.41838 17.0427 5.27588 16.4492 5.89263C16.4492 5.89263 16.8834 5.59183 16.9704 5.12548Z" fill="#595961"/>
<path opacity="0.62" fill-rule="evenodd" clip-rule="evenodd" d="M16.4062 3.77201C16.2034 3.57644 15.9996 3.39592 15.7969 3.23047C15.8701 3.30567 16.5506 3.86227 16.3626 4.70471C16.3478 4.70471 16.5654 4.20824 16.4062 3.77201Z" fill="#595961"/>
<path opacity="0.62" fill-rule="evenodd" clip-rule="evenodd" d="M17.1166 6.50912C17.1018 6.23835 17.0583 5.95252 17.0148 5.68164C17.0148 5.78696 17.1602 6.67458 16.4639 7.15599C16.4639 7.15599 16.9426 6.94536 17.1166 6.50912Z" fill="#595961"/>
<path opacity="0.62" fill-rule="evenodd" clip-rule="evenodd" d="M17.1889 7.92308C17.2037 7.65231 17.2037 7.36648 17.1889 7.0957C17.1889 7.20102 17.2037 8.08864 16.4639 8.49475C16.4639 8.47979 16.9713 8.32929 17.1889 7.92308Z" fill="#595961"/>
<path opacity="0.42" fill-rule="evenodd" clip-rule="evenodd" d="M10.8397 9.15673C10.9267 8.88596 10.9851 8.61518 11.0425 8.35938C11.0138 8.44963 10.8832 9.30714 9.99902 9.51777C10.0138 9.51777 10.5351 9.50271 10.8397 9.15673Z" fill="#595961"/>
<path opacity="0.42" fill-rule="evenodd" clip-rule="evenodd" d="M12.5944 5.27618C12.7972 5.09566 12.986 4.90009 13.1601 4.68945C13.0869 4.74959 12.5073 5.36644 11.6963 5.14074C11.7101 5.14074 12.1592 5.41161 12.5944 5.27618Z" fill="#595961"/>
<path opacity="0.42" fill-rule="evenodd" clip-rule="evenodd" d="M13.2452 4.58354C13.4776 4.43314 13.6952 4.28265 13.9118 4.11719C13.8258 4.16237 13.1591 4.65874 12.3906 4.29771C12.3906 4.29771 12.7961 4.64368 13.2452 4.58354Z" fill="#595961"/>
<path opacity="0.62" fill-rule="evenodd" clip-rule="evenodd" d="M14.1306 4.08714C14.3917 4.01184 14.638 3.92158 14.8843 3.83133C14.7973 3.86144 14.0149 4.13222 13.377 3.56055C13.377 3.56055 13.6816 4.01184 14.1306 4.08714Z" fill="#595961"/>
<path opacity="0.62" fill-rule="evenodd" clip-rule="evenodd" d="M14.8689 3.81663C15.0726 3.84675 15.2754 3.86181 15.4782 3.87687C15.406 3.86181 14.7828 3.81663 14.5068 3.21484C14.5217 3.21484 14.5939 3.62105 14.8689 3.81663Z" fill="#595961"/>
<path opacity="0.62" fill-rule="evenodd" clip-rule="evenodd" d="M15.6525 4.14713C15.7831 4.31258 15.9127 4.47804 16.0432 4.62854C15.9997 4.5683 15.5942 4.07193 15.7969 3.45508C15.8118 3.45508 15.5942 3.80115 15.6525 4.14713Z" fill="#595961"/>
<path fill-rule="evenodd" clip-rule="evenodd" d="M16.6519 8.58586C16.6658 8.42041 17.1593 4.61431 15.7825 3.45592C15.5214 3.23032 15.203 3.125 14.8548 3.125C14.5937 3.125 14.3039 3.18514 13.9993 3.30552C12.666 3.80199 11.5503 5.1409 10.7679 7.18682C10.1735 8.7213 9.98554 10.0903 9.9707 10.1505C9.9707 10.1956 9.99944 10.2407 10.043 10.2407H10.0577C10.1013 10.2407 10.1299 10.2106 10.1299 10.1655C10.1448 10.1053 10.9271 4.61431 14.0427 3.44086C14.7094 3.18514 15.2751 3.23032 15.6806 3.57629C16.9991 4.67445 16.5066 8.51067 16.4927 8.55585C16.4927 8.60093 16.5214 8.6461 16.5649 8.6461C16.5649 8.6461 16.5649 8.6461 16.5787 8.6461C16.6223 8.66116 16.6519 8.63104 16.6519 8.58586Z" fill="url(#paint22_linear_1378_8579)"/>
<path fill-rule="evenodd" clip-rule="evenodd" d="M17.2322 6.70489C17.1738 5.08014 16.8118 3.98189 16.1452 3.41022C15.7832 3.10943 15.348 2.97399 14.8555 3.00411C15.2323 3.03413 15.5795 3.16957 15.8703 3.41022C16.5369 3.96693 16.8989 5.08014 16.9562 6.70489C16.9998 7.84822 16.8702 8.84107 16.8702 8.88624C16.8405 9.06676 16.7248 9.2022 16.5794 9.24727C16.6091 9.26233 16.6229 9.26234 16.6526 9.26234C16.884 9.29245 17.1017 9.1269 17.1303 8.88624C17.1452 8.84107 17.2757 7.86328 17.2322 6.70489Z" fill="url(#paint23_linear_1378_8579)"/>
<path fill-rule="evenodd" clip-rule="evenodd" d="M14.0288 4.04164C11.1159 5.1398 10.3474 10.4202 10.3474 10.4804C10.3188 10.6609 10.202 10.7963 10.0576 10.8414C10.0863 10.8565 10.1011 10.8565 10.1298 10.8565C10.1446 10.8565 10.1733 10.8565 10.1882 10.8565C10.4058 10.8565 10.5789 10.691 10.6085 10.4804C10.6224 10.4202 11.3761 5.15486 14.2889 4.05661C14.4926 3.98141 14.6658 3.93633 14.826 3.92127C14.6084 3.89115 14.3324 3.93633 14.0288 4.04164Z" fill="url(#paint24_linear_1378_8579)"/>
<defs>
<linearGradient id="paint0_linear_1378_8579" x1="13.611" y1="3.94021" x2="13.1565" y2="10.1284" gradientUnits="userSpaceOnUse">
<stop stop-color="white" stop-opacity="0.65"/>
<stop offset="1" stop-color="white" stop-opacity="0.01"/>
</linearGradient>
<linearGradient id="paint1_linear_1378_8579" x1="16.9321" y1="7.48356" x2="20.1321" y2="10.2863" gradientUnits="userSpaceOnUse">
<stop stop-opacity="0.01"/>
<stop offset="1" stop-opacity="0.4"/>
</linearGradient>
<linearGradient id="paint2_linear_1378_8579" x1="15.6492" y1="10.7257" x2="19.0363" y2="7.57077" gradientUnits="userSpaceOnUse">
<stop stop-opacity="0.01"/>
<stop offset="1" stop-opacity="0.4"/>
</linearGradient>
<linearGradient id="paint3_linear_1378_8579" x1="11.338" y1="1.51864" x2="-1.81782" y2="16.677" gradientUnits="userSpaceOnUse">
<stop stop-color="#B8D26E"/>
<stop offset="1" stop-color="#7FB525"/>
</linearGradient>
<linearGradient id="paint4_linear_1378_8579" x1="29.3346" y1="5.31245" x2="22.1144" y2="5.44652" gradientUnits="userSpaceOnUse">
<stop stop-color="#B4E034"/>
<stop offset="1" stop-color="#60A927"/>
</linearGradient>
<linearGradient id="paint5_linear_1378_8579" x1="7.85771" y1="15.421" x2="1.93811" y2="29.8364" gradientUnits="userSpaceOnUse">
<stop stop-color="white"/>
<stop offset="1" stop-color="#CECEEB"/>
</linearGradient>
<linearGradient id="paint6_linear_1378_8579" x1="16.3459" y1="50.9212" x2="25.7213" y2="50.9022" gradientUnits="userSpaceOnUse">
<stop stop-color="#1D1D1B" stop-opacity="0.5"/>
<stop offset="0.038033" stop-color="#1D1D1B" stop-opacity="0.4837"/>
<stop offset="0.4243" stop-color="#1D1D1B" stop-opacity="0.3185"/>
<stop offset="1" stop-color="#1D1D1B" stop-opacity="0.01"/>
</linearGradient>
<linearGradient id="paint7_linear_1378_8579" x1="17.4352" y1="5.80088" x2="15.8798" y2="6.63799" gradientUnits="userSpaceOnUse">
<stop stop-opacity="0.01"/>
<stop offset="1" stop-opacity="0.4"/>
</linearGradient>
<linearGradient id="paint8_linear_1378_8579" x1="10.9136" y1="8.28338" x2="9.82021" y2="9.22302" gradientUnits="userSpaceOnUse">
<stop stop-opacity="0.01"/>
<stop offset="1" stop-opacity="0.4"/>
</linearGradient>
<linearGradient id="paint9_linear_1378_8579" x1="21.5791" y1="27.2652" x2="21.6897" y2="28.7244" gradientUnits="userSpaceOnUse">
<stop stop-opacity="0.01"/>
<stop offset="1" stop-opacity="0.4"/>
</linearGradient>
<linearGradient id="paint10_linear_1378_8579" x1="18.9946" y1="25.1291" x2="19.2512" y2="28.9228" gradientUnits="userSpaceOnUse">
<stop stop-color="white" stop-opacity="0.5"/>
<stop offset="0.0896271" stop-color="white" stop-opacity="0.4552"/>
<stop offset="1" stop-color="white" stop-opacity="0.01"/>
</linearGradient>
<linearGradient id="paint11_linear_1378_8579" x1="18.501" y1="25.7191" x2="18.9575" y2="29.7717" gradientUnits="userSpaceOnUse">
<stop stop-opacity="0.01"/>
<stop offset="1" stop-opacity="0.4"/>
</linearGradient>
<linearGradient id="paint12_linear_1378_8579" x1="16.709" y1="2.40338" x2="5.00107" y2="9.17477" gradientUnits="userSpaceOnUse">
<stop stop-color="white" stop-opacity="0.5"/>
<stop offset="1" stop-color="white" stop-opacity="0.01"/>
</linearGradient>
<linearGradient id="paint13_linear_1378_8579" x1="18.9692" y1="37.7935" x2="29.3031" y2="37.8143" gradientUnits="userSpaceOnUse">
<stop stop-color="#1D1D1B" stop-opacity="0.5"/>
<stop offset="0.0896271" stop-color="#1D1D1B" stop-opacity="0.4552"/>
<stop offset="1" stop-color="#1D1D1B" stop-opacity="0.01"/>
</linearGradient>
<linearGradient id="paint14_linear_1378_8579" x1="26.3684" y1="7.1721" x2="24.9004" y2="7.53179" gradientUnits="userSpaceOnUse">
<stop stop-color="white" stop-opacity="0.4"/>
<stop offset="1" stop-color="white" stop-opacity="0.01"/>
</linearGradient>
<linearGradient id="paint15_linear_1378_8579" x1="13.1985" y1="29.1518" x2="13.9618" y2="25.4717" gradientUnits="userSpaceOnUse">
<stop stop-color="#1D1D1B" stop-opacity="0.5"/>
<stop offset="0.0896271" stop-color="#1D1D1B" stop-opacity="0.4552"/>
<stop offset="1" stop-color="#1D1D1B" stop-opacity="0.01"/>
</linearGradient>
<linearGradient id="paint16_linear_1378_8579" x1="17.6119" y1="50.4522" x2="27.0209" y2="50.4604" gradientUnits="userSpaceOnUse">
<stop stop-color="#1D1D1B" stop-opacity="0.5"/>
<stop offset="1" stop-color="#1D1D1B" stop-opacity="0.01"/>
</linearGradient>
<linearGradient id="paint17_linear_1378_8579" x1="9.01436" y1="4.80752" x2="4.45098" y2="22.3399" gradientUnits="userSpaceOnUse">
<stop stop-color="white" stop-opacity="0.5"/>
<stop offset="1" stop-color="white" stop-opacity="0.01"/>
</linearGradient>
<linearGradient id="paint18_linear_1378_8579" x1="9.01436" y1="4.80752" x2="4.45098" y2="22.3399" gradientUnits="userSpaceOnUse">
<stop stop-color="white" stop-opacity="0.5"/>
<stop offset="1" stop-color="white" stop-opacity="0.01"/>
</linearGradient>
<linearGradient id="paint19_linear_1378_8579" x1="20.0888" y1="23.1867" x2="16.4819" y2="28.1512" gradientUnits="userSpaceOnUse">
<stop stop-color="white" stop-opacity="0.5"/>
<stop offset="0.0896271" stop-color="white" stop-opacity="0.4552"/>
<stop offset="1" stop-color="white" stop-opacity="0.01"/>
</linearGradient>
<linearGradient id="paint20_linear_1378_8579" x1="21.1765" y1="24.3281" x2="20.8194" y2="25.1286" gradientUnits="userSpaceOnUse">
<stop stop-opacity="0.01"/>
<stop offset="1" stop-opacity="0.4"/>
</linearGradient>
<linearGradient id="paint21_linear_1378_8579" x1="24.7185" y1="25.3853" x2="24.7009" y2="25.6004" gradientUnits="userSpaceOnUse">
<stop stop-opacity="0.01"/>
<stop offset="1" stop-opacity="0.4"/>
</linearGradient>
<linearGradient id="paint22_linear_1378_8579" x1="11.7293" y1="2.61859" x2="10.17" y2="8.77857" gradientUnits="userSpaceOnUse">
<stop stop-color="white" stop-opacity="0.65"/>
<stop offset="1" stop-color="white" stop-opacity="0.01"/>
</linearGradient>
<linearGradient id="paint23_linear_1378_8579" x1="15.2195" y1="6.17151" x2="17.9319" y2="8.92921" gradientUnits="userSpaceOnUse">
<stop stop-opacity="0.01"/>
<stop offset="1" stop-opacity="0.4"/>
</linearGradient>
<linearGradient id="paint24_linear_1378_8579" x1="13.4848" y1="10.232" x2="17.2325" y2="6.38318" gradientUnits="userSpaceOnUse">
<stop stop-opacity="0.01"/>
<stop offset="1" stop-opacity="0.4"/>
</linearGradient>
</defs>
</svg>
