<svg width="32" height="32" viewBox="0 0 32 32" fill="none" xmlns="http://www.w3.org/2000/svg">
<path d="M26.5002 14.9996C27.8808 14.9996 29 13.8804 29 12.4998C29 11.1192 27.8807 10 26.5001 10C25.1194 10 24 11.1193 24 12.5V14.9996H26.5002ZM19.5 14.9996C20.8807 14.9996 22 13.8803 22 12.4996V5.5C22 4.11929 20.8807 3 19.5 3C18.1193 3 17 4.11929 17 5.5V12.4996C17 13.8803 18.1193 14.9996 19.5 14.9996Z" fill="#2EB67D"/>
<path d="M5.49979 17C4.11919 17 3 18.1192 3 19.4998C3 20.8804 4.1193 21.9996 5.49989 21.9996C6.88061 21.9996 8 20.8803 8 19.4996V17H5.49979ZM12.5 17C11.1193 17 10 18.1193 10 19.5V26.4996C10 27.8803 11.1193 28.9996 12.5 28.9996C13.8807 28.9996 15 27.8803 15 26.4996V19.5C15 18.1193 13.8807 17 12.5 17Z" fill="#E01E5A"/>
<path d="M17 26.5002C17 27.8808 18.1192 29 19.4998 29C20.8804 29 21.9996 27.8807 21.9996 26.5001C21.9996 25.1194 20.8803 24 19.4996 24H17V26.5002ZM17 19.5C17 20.8807 18.1193 22 19.5 22H26.4996C27.8803 22 28.9996 20.8807 28.9996 19.5C28.9996 18.1193 27.8803 17 26.4996 17H19.5C18.1193 17 17 18.1193 17 19.5Z" fill="#ECB22E"/>
<path d="M14.9996 5.49979C14.9996 4.11919 13.8804 3 12.4998 3C11.1192 3 10 4.1193 10 5.49989C10 6.88061 11.1193 8 12.5 8H14.9996V5.49979ZM14.9996 12.5C14.9996 11.1193 13.8803 10 12.4996 10H5.5C4.11929 10 3 11.1193 3 12.5C3 13.8807 4.11929 15 5.5 15H12.4996C13.8803 15 14.9996 13.8807 14.9996 12.5Z" fill="#36C5F0"/>
</svg>
