<svg width="32" height="32" viewBox="0 0 32 32" fill="none" xmlns="http://www.w3.org/2000/svg">
<path d="M2.87195 6.36808C2 8.07937 2 10.3196 2 14.8V17.2C2 21.6804 2 23.9206 2.87195 25.6319C3.63893 27.1372 4.86278 28.3611 6.36808 29.1281C8.07937 30 10.3196 30 14.8 30H17.2C21.6804 30 23.9206 30 25.6319 29.1281C27.1372 28.3611 28.3611 27.1372 29.1281 25.6319C30 23.9206 30 21.6804 30 17.2V14.8C30 10.3196 30 8.07937 29.1281 6.36808C28.3611 4.86278 27.1372 3.63893 25.6319 2.87195C23.9206 2 21.6804 2 17.2 2H14.8C10.3196 2 8.07937 2 6.36808 2.87195C4.86278 3.63893 3.63893 4.86278 2.87195 6.36808Z" fill="url(#paint0_linear_1378_8751)"/>
<path d="M2.26522 8.27904C2 9.78632 2 11.7863 2 14.7995V17.1995C2 21.6799 2 23.9201 2.87195 25.6314C3.63893 27.1367 4.86278 28.3605 6.36808 29.1275C8.07937 29.9995 10.3196 29.9995 14.8 29.9995H17.2C21.6804 29.9995 23.9206 29.9995 25.6319 29.1275C27.1372 28.3605 28.3611 27.1367 29.1281 25.6314C30 23.9201 30 21.6799 30 17.1995V14.7995C30 10.319 30 8.07885 29.1281 6.36755C28.3878 4.91463 27.2218 3.72391 25.788 2.95312L2.26522 8.27904Z" fill="url(#paint1_linear_1378_8751)"/>
<path d="M29.7103 23.8535C29.5818 24.5292 29.3961 25.1053 29.1281 25.6314C28.3611 27.1367 27.1372 28.3605 25.6319 29.1275C23.9719 29.9733 21.814 29.9987 17.5963 29.9994H16.0586V26.8362L29.7103 23.8535Z" fill="url(#paint2_linear_1378_8751)"/>
<path d="M17.2 2H14.8C13.9283 2 13.1414 2 12.4268 2.00642V5.97052L25.7854 2.95225C25.7346 2.92495 25.6834 2.89818 25.6319 2.87195C24.6819 2.38788 23.5688 2.17255 22 2.07676C20.7429 2 19.1931 2 17.2 2Z" fill="url(#paint3_linear_1378_8751)"/>
<path d="M29.9996 17.3736C29.9995 20.3791 29.9941 22.3603 29.7099 23.8542L24.9619 24.8916V17.816L29.9996 16.6445V17.3736Z" fill="url(#paint4_linear_1378_8751)"/>
<path fill-rule="evenodd" clip-rule="evenodd" d="M14.9404 13.3779C14.9404 12.7352 15.4659 12.488 16.3361 12.488C17.5841 12.488 19.1604 12.867 20.4083 13.5427V9.67014C19.0454 9.12634 17.699 8.91211 16.3361 8.91211C13.0028 8.91211 10.7861 10.6589 10.7861 13.5756C10.7861 18.1238 17.0258 17.3988 17.0258 19.3597C17.0258 20.1178 16.369 20.365 15.4494 20.365C14.0866 20.365 12.346 19.8047 10.9667 19.0466V22.9686C12.4938 23.6278 14.0373 23.9079 15.4494 23.9079C18.8648 23.9079 21.2129 22.2106 21.2129 19.2609C21.1965 14.3502 14.9404 15.2235 14.9404 13.3779Z" fill="white"/>
<defs>
<linearGradient id="paint0_linear_1378_8751" x1="2" y1="2" x2="11.1967" y2="8.50209" gradientUnits="userSpaceOnUse">
<stop stop-color="#392993"/>
<stop offset="1" stop-color="#4B47B9"/>
</linearGradient>
<linearGradient id="paint1_linear_1378_8751" x1="3.05439" y1="8.57394" x2="23.3566" y2="25.3204" gradientUnits="userSpaceOnUse">
<stop stop-color="#594BB9"/>
<stop offset="1" stop-color="#60A8F2"/>
</linearGradient>
<linearGradient id="paint2_linear_1378_8751" x1="16.0586" y1="26.9535" x2="30" y2="29.9995" gradientUnits="userSpaceOnUse">
<stop stop-color="#61A2EF"/>
<stop offset="1" stop-color="#58E6FD"/>
</linearGradient>
<linearGradient id="paint3_linear_1378_8751" x1="12.4268" y1="3.99163" x2="30" y2="2" gradientUnits="userSpaceOnUse">
<stop stop-color="#534EBE"/>
<stop offset="1" stop-color="#6875E2"/>
</linearGradient>
<linearGradient id="paint4_linear_1378_8751" x1="24.9619" y1="17.8746" x2="29.9996" y2="23.9081" gradientUnits="userSpaceOnUse">
<stop stop-color="#71A5F3"/>
<stop offset="1" stop-color="#6CC3FA"/>
</linearGradient>
</defs>
</svg>
