<svg width="28" height="28" viewBox="0 0 28 28" fill="none" xmlns="http://www.w3.org/2000/svg">
<path d="M16.9551 16.9614C15.0555 17.6762 12.9268 17.6775 11.0271 16.9618C10.3114 15.0642 10.3112 12.936 11.026 11.0381C12.9252 10.322 15.056 10.3219 16.9552 11.038C17.6707 12.9353 17.6704 15.0641 16.9551 16.9614ZM27.8054 11.6662H19.628L25.4099 5.88762C24.5025 4.61377 23.3822 3.49476 22.1076 2.58789L16.3253 8.36651V0.194434C14.782 -0.0650062 13.1993 -0.0646162 11.6561 0.194434V8.36651L5.87371 2.58789C4.59939 3.49415 3.47877 4.61469 2.57129 5.88762L8.3541 11.6662H0.176831C-0.025019 13.2547 -0.090599 14.7476 0.176831 16.3328H8.3542L2.5714 22.1114C3.48108 23.3872 4.59713 24.5025 5.87371 25.4116L11.6561 19.6325V27.805C13.1995 28.0635 14.7817 28.0637 16.3251 27.805V19.6325L22.108 25.4116C23.3832 24.5038 24.5015 23.3857 25.4099 22.1114L19.6271 16.3328H27.8054C28.0649 14.7919 28.0649 13.2071 27.8054 11.6662Z" fill="#FF4A00"/>
</svg>
